<svg width="24" height="18" viewBox="0 0 24 18" fill="none" xmlns="http://www.w3.org/2000/svg">
<g clip-path="url(#clip0_295_15071)">
<path d="M20.3181 1.49735C18.7729 0.79646 17.0962 0.286726 15.3537 0C15.1564 0.382301 14.8934 0.860177 14.729 1.27434C12.8879 1.01947 11.0468 1.01947 9.23862 1.27434C9.07424 0.860177 8.81122 0.382301 8.58109 0C6.83862 0.286726 5.19479 0.79646 3.6167 1.49735C0.526292 6.08496 -0.328502 10.577 0.0988948 14.9735C2.17013 16.4708 4.17561 17.3947 6.18109 18C6.67424 17.3628 7.10164 16.6619 7.49616 15.9292C6.77287 15.6743 6.08246 15.3558 5.4578 14.9735C5.62218 14.846 5.78657 14.7186 5.95095 14.5912C9.89616 16.3752 14.1701 16.3752 18.0825 14.5912C18.2468 14.7186 18.4112 14.846 18.5756 14.9735C17.9181 15.3558 17.2277 15.6743 16.5373 15.9292C16.8989 16.6619 17.3592 17.3628 17.8523 18C19.8249 17.3947 21.8633 16.5027 23.9345 14.9735C24.3948 9.87611 23.0468 5.44779 20.3181 1.49735ZM8.02218 12.2655C6.83862 12.2655 5.85232 11.1823 5.85232 9.87611C5.85232 8.56991 6.80575 7.48673 8.02218 7.48673C9.23862 7.48673 10.192 8.56991 10.192 9.87611C10.1592 11.1823 9.20575 12.2655 8.02218 12.2655ZM15.9783 12.2655C14.7948 12.2655 13.8085 11.1823 13.8085 9.87611C13.8085 8.56991 14.7619 7.48673 15.9783 7.48673C17.1948 7.48673 18.1482 8.56991 18.1482 9.87611C18.1482 11.1823 17.1948 12.2655 15.9783 12.2655Z" fill="#636363"/>
</g>
<defs>
<clipPath id="clip0_295_15071">
<rect width="24" height="18" fill="white"/>
</clipPath>
</defs>
</svg>
