<svg width="24" height="24" viewBox="0 0 24 24" fill="none" xmlns="http://www.w3.org/2000/svg">
<path d="M22.1 24H1.9C0.9 24 0 23.1 0 22.1V1.9C0 0.9 0.9 0 1.9 0H22C23.1 0 24 0.9 24 1.9V22C24 23.1 23.1 24 22.1 24Z" fill="#636363"/>
<path d="M11.9002 3.69922C6.8002 3.69922 2.7002 6.99922 2.7002 10.9992C2.7002 13.5992 4.5002 15.8992 7.10019 17.1992C6.9002 17.8992 6.4002 19.7992 6.3002 20.1992C6.2002 20.6992 6.5002 20.6992 6.7002 20.5992C6.9002 20.4992 9.2002 18.8992 10.3002 18.1992C10.9002 18.2992 11.4002 18.2992 12.0002 18.2992C17.1002 18.2992 21.3002 14.9992 21.3002 10.9992C21.2002 6.99922 17.0002 3.69922 11.9002 3.69922Z" fill="#161616"/>
<path d="M8.2 8.90039H5.5C5.2 8.90039 5 9.10039 5 9.40039C5 9.70039 5.2 9.90039 5.5 9.90039H6.4V13.1004C6.4 13.2004 6.4 13.3004 6.5 13.4004C6.6 13.5004 6.7 13.5004 6.8 13.5004H6.9C7 13.5004 7.1 13.5004 7.2 13.4004C7.3 13.3004 7.3 13.2004 7.3 13.1004V9.80039H8.1C8.4 9.80039 8.6 9.60039 8.6 9.30039C8.7 9.10039 8.5 8.90039 8.2 8.90039Z" fill="#636363"/>
<path d="M14.7004 12.6008H13.4004V9.30078C13.4004 9.00078 13.2004 8.80078 12.9004 8.80078C12.6004 8.80078 12.4004 9.00078 12.4004 9.30078V12.9008V13.0008V13.1008C12.4004 13.3008 12.6004 13.5008 12.8004 13.5008H14.6004C14.8004 13.5008 15.0004 13.3008 15.0004 13.1008C15.1004 12.8008 14.9004 12.6008 14.7004 12.6008Z" fill="#636363"/>
<path d="M18.7004 12.8008L17.3004 11.0008L18.6004 9.70078C18.8004 9.50078 18.8004 9.20078 18.6004 9.10078C18.4004 8.90078 18.1004 8.90078 18.0004 9.10078L16.4004 10.7008V9.30078C16.4004 9.00078 16.2004 8.80078 15.9004 8.80078C15.6004 8.80078 15.4004 9.00078 15.4004 9.30078V13.0008C15.4004 13.3008 15.6004 13.5008 15.9004 13.5008C16.2004 13.5008 16.4004 13.3008 16.4004 13.0008V11.9008L16.7004 11.6008L18.0004 13.3008C18.1004 13.5008 18.4004 13.5008 18.6004 13.4008C18.8004 13.3008 18.9004 13.0008 18.7004 12.8008Z" fill="#636363"/>
<path d="M12.1 12.9008L10.7 9.20078C10.6 9.00078 10.4 8.80078 10.1 8.80078C9.8 8.80078 9.5 9.00078 9.4 9.30078C9.4 9.30078 9.4 9.30078 9.4 9.40078L8.1 13.0008C8 13.2008 8.1 13.5008 8.4 13.6008C8.6 13.7008 8.9 13.6008 9 13.3008L9.2 12.6008H11L11.2 13.3008C11.3 13.5008 11.5 13.7008 11.8 13.6008C12 13.4008 12.2 13.1008 12.1 12.9008ZM9.4 11.7008L10 9.90078L10.6 11.7008H9.4Z" fill="#636363"/>
</svg>
