<svg width="24" height="20" viewBox="0 0 24 20" fill="none" xmlns="http://www.w3.org/2000/svg">
<path d="M24 2.37113C23.1 2.78351 22.2 3.09278 21.2 3.19588C22.2 2.57732 23 1.54639 23.4 0.412371C22.4 1.03093 21.4 1.4433 20.3 1.64948C19.4 0.618557 18.1 0 16.7 0C14 0 11.8 2.26804 11.8 5.05155C11.8 5.46392 11.8 5.87629 11.9 6.18557C7.7 5.97938 4.1 3.91753 1.7 0.824742C1.2 1.64948 1 2.47423 1 3.40206C1 5.15464 1.9 6.70103 3.2 7.62887C2.4 7.62887 1.6 7.42268 1 7.01031C1 7.01031 1 7.01031 1 7.1134C1 9.58763 2.7 11.6495 4.9 12.0619C4.5 12.1649 4.1 12.268 3.6 12.268C3.3 12.268 3 12.268 2.7 12.1649C3.3 14.2268 5.1 15.6701 7.3 15.6701C5.6 17.0103 3.5 17.8351 1.2 17.8351C0.8 17.8351 0.4 17.8351 0 17.732C2.2 19.1753 4.8 20 7.5 20C16.6 20 21.5 12.268 21.5 5.56701C21.5 5.36083 21.5 5.15464 21.5 4.94845C22.5 4.2268 23.3 3.29897 24 2.37113Z" fill="#636363"/>
</svg>
