<svg width="32" height="32" viewBox="0 0 32 32" fill="none" xmlns="http://www.w3.org/2000/svg">
<path d="M16 3.7C20 3.7 20.48 3.715 22.061 3.787C23.0124 3.79823 23.9549 3.97311 24.847 4.304C25.4983 4.54443 26.0874 4.92783 26.571 5.426C27.0692 5.90957 27.4526 6.49869 27.693 7.15C28.0239 8.04213 28.1988 8.98455 28.21 9.936C28.282 11.52 28.3 12 28.3 16C28.3 20 28.285 20.48 28.213 22.061C28.2018 23.0124 28.0269 23.9549 27.696 24.847C27.4463 25.4936 27.0641 26.0809 26.574 26.571C26.0839 27.0611 25.4966 27.4433 24.85 27.693C23.9579 28.0239 23.0154 28.1988 22.064 28.21C20.483 28.282 20.008 28.297 16.003 28.297C11.998 28.297 11.523 28.282 9.942 28.21C8.99055 28.1988 8.04813 28.0239 7.156 27.693C6.50469 27.4526 5.91557 27.0692 5.432 26.571C4.93383 26.0874 4.55043 25.4983 4.31 24.847C3.97911 23.9549 3.80423 23.0124 3.793 22.061C3.718 20.48 3.7 20.005 3.7 16C3.7 11.995 3.715 11.52 3.787 9.939C3.79823 8.98755 3.97311 8.04513 4.304 7.153C4.5453 6.50141 4.92975 5.91227 5.429 5.429C5.91257 4.93083 6.50169 4.54743 7.153 4.307C8.04513 3.97611 8.98755 3.80123 9.939 3.79C11.52 3.718 12 3.7 16 3.7ZM16 1C11.926 1 11.415 1.017 9.816 1.09C8.57122 1.11637 7.33986 1.35304 6.174 1.79C5.17376 2.16644 4.26745 2.75609 3.518 3.518C2.75501 4.26716 2.16432 5.17349 1.787 6.174C1.35004 7.33986 1.11337 8.57122 1.087 9.816C1.017 11.415 1 11.926 1 16C1 20.074 1.017 20.585 1.09 22.184C1.11637 23.4288 1.35304 24.6601 1.79 25.826C2.16732 26.8265 2.75801 27.7328 3.521 28.482C4.27016 29.245 5.17649 29.8357 6.177 30.213C7.34286 30.65 8.57422 30.8866 9.819 30.913C11.419 30.986 11.929 31.003 16.003 31.003C20.077 31.003 20.588 30.986 22.187 30.913C23.4318 30.8866 24.6631 30.65 25.829 30.213C26.825 29.8269 27.7296 29.2374 28.485 28.482C29.2404 27.7266 29.8299 26.822 30.216 25.826C30.653 24.6601 30.8896 23.4288 30.916 22.184C30.989 20.584 31.006 20.074 31.006 16C31.006 11.926 30.989 11.415 30.916 9.816C30.8896 8.57122 30.653 7.33986 30.216 6.174C29.8387 5.17349 29.248 4.26716 28.485 3.518C27.7358 2.75501 26.8295 2.16432 25.829 1.787C24.6631 1.35004 23.4318 1.11337 22.187 1.087C20.585 1.017 20.074 1 16 1Z" fill="white"/>
<path d="M16.0008 8.30078C14.4779 8.30078 12.9892 8.75238 11.7229 9.59846C10.4566 10.4446 9.46971 11.6471 8.88691 13.0541C8.30412 14.4611 8.15163 16.0093 8.44874 17.503C8.74584 18.9966 9.4792 20.3686 10.5561 21.4455C11.6329 22.5224 13.0049 23.2557 14.4986 23.5528C15.9922 23.8499 17.5405 23.6974 18.9474 23.1147C20.3544 22.5319 21.557 21.5449 22.4031 20.2787C23.2492 19.0124 23.7008 17.5237 23.7008 16.0008C23.7008 13.9586 22.8895 12.0001 21.4455 10.5561C20.0015 9.11203 18.043 8.30078 16.0008 8.30078ZM16.0008 21.0008C15.0119 21.0008 14.0452 20.7075 13.2229 20.1581C12.4007 19.6087 11.7598 18.8278 11.3814 17.9142C11.0029 17.0006 10.9039 15.9952 11.0969 15.0253C11.2898 14.0554 11.766 13.1645 12.4653 12.4652C13.1645 11.766 14.0554 11.2898 15.0253 11.0969C15.9952 10.9039 17.0006 11.0029 17.9142 11.3814C18.8278 11.7598 19.6087 12.4007 20.1581 13.2229C20.7075 14.0452 21.0008 15.0119 21.0008 16.0008C21.0008 17.3269 20.474 18.5986 19.5363 19.5363C18.5986 20.474 17.3269 21.0008 16.0008 21.0008Z" fill="white"/>
<path d="M24.007 9.79141C25.0011 9.79141 25.807 8.98552 25.807 7.99141C25.807 6.99729 25.0011 6.19141 24.007 6.19141C23.0129 6.19141 22.207 6.99729 22.207 7.99141C22.207 8.98552 23.0129 9.79141 24.007 9.79141Z" fill="white"/>
</svg>
