<svg width="32" height="32" viewBox="0 0 32 32" fill="none" xmlns="http://www.w3.org/2000/svg">
<path d="M29.4667 32H2.53333C1.2 32 0 30.8 0 29.4667V2.53333C0 1.2 1.2 0 2.53333 0H29.3333C30.8 0 32 1.2 32 2.53333V29.3333C32 30.8 30.8 32 29.4667 32Z" fill="#F6E14B"/>
<path d="M15.8663 4.93359C9.06628 4.93359 3.59961 9.33359 3.59961 14.6669C3.59961 18.1336 5.99961 21.2003 9.46628 22.9336C9.19961 23.8669 8.53294 26.4003 8.39961 26.9336C8.26628 27.6003 8.66628 27.6003 8.93294 27.4669C9.19961 27.3336 12.2663 25.2003 13.7329 24.2669C14.5329 24.4003 15.1996 24.4003 15.9996 24.4003C22.7996 24.4003 28.3996 20.0003 28.3996 14.6669C28.2663 9.33359 22.6663 4.93359 15.8663 4.93359Z" fill="#161616"/>
<path d="M10.9327 11.8672H7.33268C6.93268 11.8672 6.66602 12.1339 6.66602 12.5339C6.66602 12.9339 6.93268 13.2005 7.33268 13.2005H8.53268V17.4672C8.53268 17.6005 8.53268 17.7339 8.66601 17.8672C8.79935 18.0005 8.93268 18.0005 9.06602 18.0005H9.19935C9.33268 18.0005 9.46601 18.0005 9.59935 17.8672C9.73268 17.7339 9.73268 17.6005 9.73268 17.4672V13.0672H10.7993C11.1993 13.0672 11.466 12.8005 11.466 12.4005C11.5993 12.1339 11.3327 11.8672 10.9327 11.8672Z" fill="#F6E14B"/>
<path d="M19.5999 16.801H17.8665V12.401C17.8665 12.001 17.5999 11.7344 17.1999 11.7344C16.7999 11.7344 16.5332 12.001 16.5332 12.401V17.201V17.3344V17.4677C16.5332 17.7344 16.7999 18.001 17.0665 18.001H19.4665C19.7332 18.001 19.9999 17.7344 19.9999 17.4677C20.1332 17.0677 19.8665 16.801 19.5999 16.801Z" fill="#F6E14B"/>
<path d="M24.9332 17.0677L23.0665 14.6677L24.7999 12.9344C25.0665 12.6677 25.0665 12.2677 24.7999 12.1344C24.5332 11.8677 24.1332 11.8677 23.9999 12.1344L21.8665 14.2677V12.401C21.8665 12.001 21.5999 11.7344 21.1999 11.7344C20.7999 11.7344 20.5332 12.001 20.5332 12.401V17.3344C20.5332 17.7344 20.7999 18.001 21.1999 18.001C21.5999 18.001 21.8665 17.7344 21.8665 17.3344V15.8677L22.2665 15.4677L23.9999 17.7344C24.1332 18.001 24.5332 18.001 24.7999 17.8677C25.0665 17.7344 25.1999 17.3344 24.9332 17.0677Z" fill="#F6E14B"/>
<path d="M16.1333 17.201L14.2667 12.2677C14.1333 12.001 13.8667 11.7344 13.4667 11.7344C13.0667 11.7344 12.6667 12.001 12.5333 12.401C12.5333 12.401 12.5333 12.401 12.5333 12.5344L10.8 17.3344C10.6667 17.601 10.8 18.001 11.2 18.1344C11.4667 18.2677 11.8667 18.1344 12 17.7344L12.2667 16.801H14.6667L14.9333 17.7344C15.0667 18.001 15.3333 18.2677 15.7333 18.1344C16 17.8677 16.2667 17.4677 16.1333 17.201ZM12.5333 15.601L13.3333 13.201L14.1333 15.601H12.5333Z" fill="#F6E14B"/>
</svg>
