<svg width="32" height="32" viewBox="0 0 32 32" fill="none" xmlns="http://www.w3.org/2000/svg">
<path d="M29 1H3C2.46957 1 1.96086 1.21071 1.58579 1.58579C1.21071 1.96086 1 2.46957 1 3V29C1 29.5304 1.21071 30.0391 1.58579 30.4142C1.96086 30.7893 2.46957 31 3 31H29C29.5304 31 30.0391 30.7893 30.4142 30.4142C30.7893 30.0391 31 29.5304 31 29V3C31 2.46957 30.7893 1.96086 30.4142 1.58579C30.0391 1.21071 29.5304 1 29 1ZM25.923 8.108L24.314 9.65C24.2458 9.70187 24.1931 9.77139 24.1615 9.85106C24.13 9.93073 24.1208 10.0175 24.135 10.102V21.437C24.1207 21.5215 24.1298 21.6083 24.1614 21.688C24.1929 21.7677 24.2457 21.8372 24.314 21.889L25.885 23.432V23.77H17.985V23.432L19.612 21.85C19.773 21.69 19.773 21.643 19.773 21.398V12.237L15.247 23.737H14.636L9.363 12.237V19.937C9.34171 20.0968 9.35693 20.2594 9.4075 20.4125C9.45808 20.5656 9.5427 20.7053 9.655 20.821L11.772 23.388V23.727H5.772V23.388L7.889 20.821C8.00036 20.7052 8.08305 20.5649 8.13046 20.4114C8.17786 20.2579 8.18866 20.0954 8.162 19.937V11.031C8.17388 10.9093 8.15699 10.7866 8.1127 10.6726C8.0684 10.5587 7.99794 10.4567 7.907 10.375L6.023 8.108V7.77H11.866L16.382 17.67L20.353 7.77H25.922L25.923 8.108Z" fill="white"/>
</svg>
