<svg width="32" height="32" viewBox="0 0 32 32" fill="none" xmlns="http://www.w3.org/2000/svg">
<path d="M15.9993 31.3346C24.4677 31.3346 31.3327 24.4697 31.3327 16.0013C31.3327 7.53294 24.4677 0.667969 15.9993 0.667969C7.53098 0.667969 0.666016 7.53294 0.666016 16.0013C0.666016 24.4697 7.53098 31.3346 15.9993 31.3346Z" fill="url(#paint0_linear_320_62354)"/>
<path d="M11.0449 17.1201L12.8656 22.1555C12.8656 22.1555 13.0929 22.6268 13.3363 22.6268C13.5796 22.6268 17.2029 18.8581 17.2029 18.8581L21.2309 11.0781L11.1096 15.8208L11.0449 17.1201Z" fill="#C8DAEA"/>
<path d="M13.457 18.4141L13.1077 22.1254C13.1077 22.1254 12.9617 23.2627 14.0983 22.1254C15.235 20.9881 16.3237 20.1114 16.3237 20.1114L13.457 18.4141Z" fill="#A9C6D8"/>
<path d="M11.0789 17.3036L7.33755 16.0843C7.33755 16.0843 6.89088 15.903 7.03422 15.4916C7.06355 15.4063 7.12355 15.3343 7.30088 15.2096C8.13022 14.6316 22.6476 9.41365 22.6476 9.41365C22.8568 9.34015 23.082 9.32426 23.2996 9.36765C23.3594 9.38621 23.4132 9.4203 23.4556 9.46644C23.498 9.51257 23.5274 9.56912 23.5409 9.63032C23.5668 9.7383 23.5775 9.84936 23.5729 9.96032C23.5729 10.0563 23.5602 10.1456 23.5515 10.2856C23.4629 11.7116 20.8182 22.3596 20.8182 22.3596C20.8182 22.3596 20.6602 22.9823 20.0929 23.0036C19.9532 23.0086 19.8139 22.9853 19.6834 22.9351C19.5529 22.885 19.4339 22.8089 19.3335 22.7116C18.2202 21.7536 14.3729 19.1683 13.5229 18.5996C13.5044 18.5864 13.4889 18.5694 13.4774 18.5498C13.4659 18.5301 13.4587 18.5083 13.4562 18.4856C13.4442 18.4256 13.5095 18.3523 13.5095 18.3523C13.5095 18.3523 20.2082 12.3976 20.3862 11.773C20.4002 11.725 20.3482 11.701 20.2782 11.7216C19.8329 11.8856 12.1202 16.7556 11.2689 17.2936C11.2072 17.3118 11.1421 17.3152 11.0789 17.3036Z" fill="white"/>
<defs>
<linearGradient id="paint0_linear_320_62354" x1="15.9993" y1="31.3346" x2="15.9993" y2="0.667969" gradientUnits="userSpaceOnUse">
<stop stop-color="#1D93D2"/>
<stop offset="1" stop-color="#38B0E3"/>
</linearGradient>
</defs>
</svg>
