<svg width="32" height="32" viewBox="0 0 32 32" fill="none" xmlns="http://www.w3.org/2000/svg">
<g clip-path="url(#clip0_320_62427)">
<path d="M32 5.82948C30.8 6.37931 29.6 6.79168 28.2667 6.92914C29.6 6.10439 30.6667 4.72982 31.2 3.2178C29.8667 4.04254 28.5333 4.59237 27.0667 4.86728C25.8667 3.49271 24.1333 2.66797 22.2667 2.66797C18.6667 2.66797 15.7333 5.69202 15.7333 9.40336C15.7333 9.95319 15.7333 10.503 15.8667 10.9154C10.2667 10.6405 5.46667 7.89134 2.26667 3.76763C1.6 4.86728 1.33333 5.96694 1.33333 7.20405C1.33333 9.54082 2.53333 11.6027 4.26667 12.8398C3.2 12.8398 2.13333 12.5649 1.33333 12.015C1.33333 12.015 1.33333 12.015 1.33333 12.1525C1.33333 15.4515 3.6 18.2006 6.53333 18.7504C6 18.8879 5.46667 19.0254 4.8 19.0254C4.4 19.0254 4 19.0254 3.6 18.8879C4.4 21.637 6.8 23.5614 9.73333 23.5614C7.46667 25.3484 4.66667 26.448 1.6 26.448C1.06667 26.448 0.533333 26.448 0 26.3106C2.93333 28.235 6.4 29.3346 10 29.3346C22.1333 29.3346 28.6667 19.0254 28.6667 10.0906C28.6667 9.81574 28.6667 9.54082 28.6667 9.26591C30 8.30371 31.0667 7.06659 32 5.82948Z" fill="#479AE9"/>
</g>
<defs>
<clipPath id="clip0_320_62427">
<rect width="32" height="26.6667" fill="white" transform="translate(0 2.66797)"/>
</clipPath>
</defs>
</svg>
