<svg width="70" height="60" viewBox="0 0 70 60" fill="none" xmlns="http://www.w3.org/2000/svg">
<g clip-path="url(#clip0_295_15020)">
<path d="M26.9475 24.8738C28.8997 24.0078 30.7821 23.211 32.6646 22.3796C32.6995 22.4142 32.6995 22.4489 32.7343 22.4489C31.5839 24.2849 30.3987 26.1209 29.2483 27.957C29.2483 27.9916 29.2831 27.9916 29.2831 28.0262C31.0959 26.987 32.8738 25.9824 34.7911 24.8738C34.6865 25.0817 34.6516 25.1856 34.6168 25.2549C33.6058 27.0909 32.6297 28.9616 31.6188 30.7976C31.5142 30.9708 31.4096 31.144 31.2702 31.2826C28.7602 33.7768 26.2503 36.271 23.7403 38.7999C23.7054 38.8346 23.6706 38.8692 23.5311 38.9385C23.322 38.696 23.1128 38.4535 22.8688 38.211C21.9624 37.3103 21.056 36.4443 20.1497 35.5782C19.9405 35.3704 19.6965 35.2318 19.4176 35.1279C16.8379 34.2965 14.2582 33.4997 11.6437 32.7376C11.2254 32.599 11.0511 32.4604 11.0511 32.0101C10.9813 30.6244 10.8419 29.2387 10.7373 27.8184C13.7005 28.0262 16.5939 28.2341 19.5919 28.4419C19.1387 25.3934 18.7204 22.4142 18.2672 19.3657C19.313 18.95 20.3588 18.4997 21.3349 18.084C21.3698 18.4304 21.3698 18.8115 21.4744 19.1232C21.5441 19.2965 21.7881 19.4697 21.9624 19.5736C22.3807 19.7468 22.8339 19.5389 23.0431 19.1232C23.322 18.6036 23.1477 18.1533 22.4505 17.6336C22.6248 17.5644 22.7642 17.4951 22.9385 17.4258C24.2632 19.92 25.5879 22.3796 26.9475 24.8738ZM29.9106 28.7191C29.0042 28.3727 28.1676 28.0609 27.2961 27.7491C27.2263 27.957 27.1566 28.1648 27.052 28.3727C27.9236 28.6844 28.7602 28.9962 29.6317 29.3426C29.7712 29.1348 29.8409 28.9616 29.9106 28.7191Z" fill="white"/>
<path d="M35.8711 24.907C37.7536 25.9809 39.5315 26.9855 41.3093 28.0248C41.3442 28.0248 41.3442 27.9902 41.3791 27.9902C40.1938 26.1541 39.0434 24.2835 37.7884 22.3435C39.8103 23.2442 41.7277 24.0756 43.645 24.907C44.9697 22.4128 46.3293 19.9532 47.654 17.459C47.8283 17.5283 48.0026 17.5976 48.142 17.6668C47.4448 18.2211 47.2705 18.7407 47.5842 19.2604C47.8283 19.6414 48.3163 19.78 48.7346 19.6068C49.2576 19.3643 49.397 18.8793 49.153 18.1518C49.2924 18.1865 49.397 18.2211 49.5016 18.2558C50.3034 18.6022 51.1052 18.9486 51.9418 19.2604C52.2556 19.3643 52.3601 19.5375 52.3253 19.8839C52.1161 21.2003 51.9069 22.5514 51.7326 23.9024C51.4886 25.4267 51.2795 26.9509 51.0354 28.5444C53.9637 28.3366 56.892 28.1287 59.8552 27.9209C59.8203 28.7176 59.7506 29.4798 59.7157 30.2419C59.6809 30.9001 59.5763 31.5929 59.5763 32.2511C59.5763 32.5976 59.4368 32.7361 59.1231 32.8054C56.5085 33.6022 53.894 34.3989 51.3143 35.2303C50.9657 35.3343 50.6171 35.5421 50.3382 35.8193C49.2575 36.8932 48.2117 38.0017 47.0962 39.1103C46.9219 38.9717 46.8173 38.8678 46.7127 38.7985C44.2725 36.3735 41.7974 33.9486 39.3572 31.489C39.2526 31.3851 39.1131 31.2465 39.0434 31.1079C37.9976 29.168 36.9518 27.228 35.9408 25.3227C35.9757 25.1495 35.9408 25.0802 35.8711 24.907ZM44.0285 27.7477C43.157 28.0594 42.3203 28.4059 41.4488 28.7176C41.5534 28.9601 41.6231 29.1333 41.6928 29.3412C42.5992 28.9948 43.4358 28.683 44.2725 28.3712C44.2028 28.1634 44.133 27.9555 44.0285 27.7477Z" fill="white"/>
<path d="M32.037 32.3203C35.6276 35.8538 39.2531 39.3873 42.8786 42.9901C40.3338 45.5536 37.8587 48.0478 35.3488 50.5767C31.7233 46.9393 28.1326 43.3365 24.542 39.7684C27.0171 37.3088 29.5619 34.7799 32.037 32.3203Z" fill="white"/>
<path d="M46.0854 39.804C45.3184 40.6008 44.5166 41.4322 43.6451 42.2983C41.1352 39.7694 38.6252 37.2405 36.1152 34.7116C36.9519 33.9149 37.7885 33.1181 38.5903 32.3906C41.0654 34.8156 43.5754 37.3098 46.0854 39.804Z" fill="white"/>
<path d="M63.0977 21.9981C64.1086 21.7903 67.5946 20.1967 68.4661 19.5039C68.9891 20.5778 69.4771 21.6517 69.9651 22.7256C70.1046 23.0374 69.6514 24.042 69.3725 24.2152C68.8496 24.5616 68.2918 24.6309 67.7341 24.2845C67.6644 24.4231 67.6295 24.4924 67.5946 24.5963C67.4552 24.9427 67.3506 25.2545 66.9323 25.4623C66.2002 25.9127 65.5379 25.8088 64.8755 25.4623C64.771 25.3931 64.6315 25.3584 64.5967 25.2545C64.1086 24.1459 63.6206 23.072 63.0977 21.9981ZM66.0956 22.587C65.8865 22.6563 65.747 22.7256 65.6076 22.7949C65.015 23.072 64.9453 23.3492 65.4333 23.7649C65.5727 23.9034 65.8865 23.9727 66.0259 23.9034C66.2002 23.7995 66.3745 23.557 66.3745 23.3492C66.3745 23.1067 66.2002 22.8642 66.0956 22.587ZM68.0478 21.6864C67.2112 21.9981 67.2112 21.9981 67.4203 22.4485C67.5598 22.7603 67.6992 23.1067 68.1524 22.8988C68.5359 22.7256 68.501 22.3446 68.0478 21.6864Z" fill="white"/>
<path d="M5.40339 26.6048C3.66036 25.6348 1.88247 24.8727 0 24.1798C0.104582 23.9027 0.244024 23.5563 0.418327 23.2098C0.697211 22.5516 0.976096 21.9281 1.28984 21.3045C1.39442 21.0967 1.60359 20.9235 1.81275 20.8195C2.57968 20.3346 3.34661 20.3692 4.11355 20.8542C4.39243 21.0274 4.70618 21.2006 5.01992 21.2699C6.06574 21.5124 6.51892 22.2399 6.72809 23.1752C6.76295 23.3138 6.76295 23.4523 6.72809 23.5563C6.30976 24.5955 5.85657 25.6001 5.40339 26.6048ZM1.95219 23.1059C2.78884 23.487 3.55578 23.8334 4.35757 24.1798C4.84562 24.3877 5.05478 24.2837 5.08964 23.7295C5.1245 23.3138 4.91534 23.0713 4.56673 22.8981C4.18327 22.7249 3.7998 22.5516 3.41633 22.3784C2.61454 22.032 2.3008 22.1706 1.95219 23.1059Z" fill="white"/>
<path d="M44.8311 7.24102C45.4934 6.30568 46.9227 2.66827 47.0273 1.76758C47.9685 2.14864 48.8749 2.5297 49.8161 2.84148C50.2693 3.01469 50.5133 3.29183 50.7225 3.70753C51.0362 4.36573 51.0711 4.92 50.7573 5.54356C50.4436 6.16712 50.2344 6.85996 49.9556 7.48351C49.851 7.69137 49.6418 7.89922 49.4326 8.03779C48.6657 8.55742 47.8988 8.52277 47.0621 8.07243C46.3301 7.76065 45.5631 7.5528 44.8311 7.24102ZM48.2474 3.70753C47.9336 4.5043 47.585 5.33571 47.2364 6.16712C46.9924 6.72139 47.2016 6.79067 47.6896 6.85996C48.0731 6.92924 48.3868 6.72139 48.5263 6.34033C48.7006 5.92462 48.84 5.50892 49.0143 5.09321C49.3629 4.33109 49.1886 3.95003 48.2474 3.70753Z" fill="white"/>
<path d="M39.8456 0.207031C40.2291 0.276315 40.6474 0.380241 41.0657 0.414883C41.4143 0.449525 41.5538 0.622736 41.6584 0.899872C41.9373 1.73128 42.251 2.52805 42.5996 3.49802C42.739 2.49341 42.8785 1.662 42.9831 0.761304C43.4711 0.86523 44.0289 0.969156 44.4821 1.03844C44.0986 2.97839 43.7151 4.88371 43.3317 6.82366C42.9831 6.75438 42.6693 6.71973 42.3904 6.61581C42.2859 6.58117 42.1813 6.40796 42.1464 6.30403C41.7629 5.29941 41.3795 4.29479 41.0309 3.29017C40.996 3.22089 40.9612 3.11696 40.8914 2.97839C40.7171 4.12158 40.5428 5.16084 40.3685 6.26939C39.8805 6.16546 39.3227 6.06153 38.7998 5.99225C39.2879 4.08694 39.6713 2.18163 39.8456 0.207031Z" fill="white"/>
<path d="M10.0751 18.188C10.0403 18.2573 9.97055 18.3958 9.90083 18.5344C9.65681 18.9155 9.3082 19.2619 9.1339 19.6776C8.75043 20.5783 7.87892 20.509 7.14685 20.6476C7.07712 20.6476 6.93768 20.5783 6.86796 20.509C5.99645 19.9201 5.12493 19.3312 4.25342 18.673C4.04426 18.5344 4.0094 18.188 3.90481 17.9109C3.62593 17.2527 3.80023 16.6984 4.25342 16.2134C4.358 16.1095 4.46258 15.9709 4.5323 15.8323C4.91577 15.0009 5.57812 14.6199 6.51936 14.6545C6.69366 14.6545 6.90282 14.6891 7.04226 14.7931C7.84406 15.3473 8.64585 15.9016 9.44764 16.4559C9.72653 16.6291 9.90083 16.837 9.93569 17.1834C9.93569 17.4952 10.0054 17.8069 10.0751 18.188ZM7.77434 18.8808C7.91378 18.7423 8.19266 18.5691 8.26238 18.3266C8.33211 18.1187 8.26238 17.7723 8.12294 17.6337C7.56517 17.1834 6.97254 16.8023 6.41477 16.4212C6.13589 16.248 5.89187 16.352 5.6827 16.5598C5.47354 16.8023 5.22952 17.1487 5.5084 17.3566C6.17075 17.9109 6.86796 18.3266 7.56517 18.8115C7.56517 18.8462 7.60003 18.8462 7.77434 18.8808Z" fill="white"/>
<path d="M27.8889 6.75435C27.6797 6.61579 27.4357 6.44258 27.1917 6.30401C26.7036 6.06151 26.4945 5.68045 26.3899 5.16082C26.2505 4.29477 26.0413 3.42872 25.9019 2.52803C25.867 2.35482 25.9367 2.14696 26.0064 1.97375C26.355 1.14235 27.0174 0.692 27.9238 0.692C27.9935 0.692 28.0632 0.692 28.0981 0.657358C29.0044 0.276295 29.7365 0.588074 30.3989 1.17699C30.5034 1.28091 30.608 1.45412 30.6429 1.59269C30.8521 2.59731 31.0612 3.63657 31.2355 4.67583C31.2704 4.8144 31.2007 5.02225 31.1309 5.16082C30.7823 5.95759 30.1897 6.40793 29.2485 6.44258C28.8301 6.51186 28.377 6.65043 27.8889 6.75435ZM29.4228 4.3987C29.2833 3.7405 29.1787 3.0823 29.0044 2.38946C28.9347 2.04304 28.621 1.93911 28.2375 2.0084C27.8192 2.07768 27.61 2.32018 27.6797 2.73588C27.7843 3.39408 27.9238 4.01763 28.0632 4.67583C28.1678 5.0569 28.4815 5.23011 28.865 5.16082C29.2136 5.0569 29.4576 4.84904 29.4228 4.3987Z" fill="white"/>
<path d="M22.1013 56.7434C22.1013 57.748 22.1013 58.8219 22.1013 59.9304C21.6133 59.9304 21.0207 59.9304 20.4978 59.9304C20.6372 57.9905 20.7069 56.0505 20.4629 54.0759C20.9509 54.0759 21.4738 54.0413 21.9619 54.0759C22.1013 54.0759 22.2408 54.2491 22.3105 54.3531C22.7637 55.0806 23.2169 55.8427 23.6352 56.6048C23.6352 55.7734 23.6352 54.942 23.6352 54.0759C24.1232 54.0759 24.681 54.0759 25.2736 54.0759C24.9599 56.0159 25.2388 57.9559 25.0993 59.9304C24.7856 59.9304 24.4719 59.9651 24.1581 59.9304C24.0187 59.8958 23.8792 59.7572 23.8095 59.6187C23.2517 58.6487 22.6591 57.6787 22.1013 56.7434Z" fill="white"/>
<path d="M64.5271 13.6836C64.8408 14.1339 65.2243 14.6536 65.538 15.0693C64.4573 15.8314 63.4115 16.5589 62.3657 17.321C62.052 17.5635 61.9822 17.8753 62.2263 18.2217C62.4354 18.5335 62.784 18.672 63.0978 18.4296C64.1436 17.6674 65.294 17.0439 66.2004 16.0046C66.549 16.4896 66.9325 16.9746 67.2811 17.4596C65.8866 18.1524 64.7014 19.157 63.4813 20.0577C63.3767 20.127 63.2372 20.1617 63.0978 20.1617C62.7143 20.127 62.3308 20.0577 61.9474 19.9884C61.8079 19.9538 61.7034 19.8499 61.5988 19.7113C61.3199 19.3649 61.1107 18.9492 60.797 18.6374C60.0998 17.9792 60.4484 17.2517 60.5529 16.5589C60.5529 16.4896 60.6575 16.4203 60.7272 16.351C61.7382 15.6235 62.784 14.9307 63.795 14.2032C64.039 14.0647 64.2482 13.8914 64.5271 13.6836Z" fill="white"/>
<path d="M45.1091 57.0209C45.1091 56.6398 45.1439 56.2934 45.1091 55.9123C45.0394 55.3927 45.2485 55.0116 45.632 54.6306C46.0503 54.2149 46.4338 53.9724 47.0264 54.0417C47.2356 54.0763 47.4447 54.0763 47.619 54.0417C48.5603 53.8338 49.0483 54.5267 49.5712 55.0809C49.6409 55.1502 49.6409 55.3234 49.6409 55.4273C49.6409 56.5012 49.6409 57.5405 49.6409 58.6144C49.6409 58.7876 49.5364 58.9608 49.4318 59.0994C48.9437 59.8269 48.2465 60.1387 47.375 59.9655C47.3402 59.9655 47.3053 59.9655 47.2704 59.9655C46.3292 60.2079 45.7366 59.6537 45.2137 58.9955C45.1439 58.8915 45.0742 58.7183 45.0742 58.5798C45.1091 58.0601 45.1091 57.5405 45.1091 57.0209ZM48.0722 56.9862C48.0722 56.6398 48.0722 56.2934 48.0722 55.9816C48.0374 55.5659 47.7933 55.3234 47.4099 55.3234C46.9915 55.3234 46.7127 55.5659 46.7127 55.9816C46.7127 56.6398 46.6778 57.3327 46.7127 58.0255C46.7127 58.4412 46.9915 58.6837 47.4099 58.6837C47.7933 58.6837 48.0722 58.4412 48.1071 58.0255C48.1071 57.6791 48.0722 57.3327 48.0722 56.9862Z" fill="white"/>
<path d="M35.5231 0C36.1506 0 36.7432 0 37.3707 0C37.0918 1.52425 37.301 3.0485 37.3359 4.57275C37.3359 4.71132 37.2661 4.84988 37.1964 4.95381C36.6735 5.68129 36.0112 6.06236 35.0699 5.88915C35.0002 5.88915 34.9305 5.88915 34.8956 5.88915C33.9892 6.097 33.3617 5.64665 32.8388 4.98845C32.7691 4.88453 32.6994 4.7806 32.6994 4.67667C32.6994 3.36028 32.6994 2.07852 32.6645 0.762125C32.6645 0.554273 32.56 0.311778 32.4902 0.034642C33.1874 0.034642 33.8149 0.034642 34.4076 0.034642C34.4076 1.24711 34.4076 2.49423 34.4076 3.74134C34.4076 4.26097 34.6516 4.50346 35.1048 4.46882C35.5231 4.46882 35.7671 4.19169 35.7671 3.7067C35.7671 2.806 35.7671 1.90531 35.7323 1.00462C35.6974 0.692841 35.5928 0.381062 35.5231 0Z" fill="white"/>
<path d="M11.6432 10.3226C11.19 10.6691 10.7019 10.9808 10.2488 11.3619C9.76071 11.8122 9.76071 12.2972 10.2488 12.7822C10.5625 13.1286 10.9111 13.4404 11.2249 13.7522C11.6083 14.1333 12.2009 14.064 12.4101 13.5443C12.4798 13.4058 12.4101 13.1286 12.3055 13.0247C11.9569 12.6783 11.5386 12.4012 11.19 12.1587C11.6083 11.743 12.0964 11.2233 12.6193 10.6691C12.7587 11.3965 13.3513 11.743 13.8045 12.2279C13.944 12.3665 14.0137 12.5744 14.0486 12.7476C14.188 13.579 13.944 14.2718 13.2119 14.7568C13.177 14.7915 13.1422 14.8261 13.1073 14.8607C12.5844 15.6921 11.7478 15.7268 10.9111 15.6229C10.7717 15.6229 10.6671 15.5536 10.5625 15.4497C9.83043 14.7222 9.09836 13.9947 8.40115 13.2326C8.29657 13.1286 8.22685 12.9208 8.19198 12.7476C8.15712 11.4312 8.15712 11.4312 9.09836 10.4958C9.37724 10.2187 9.62127 9.94157 9.93501 9.69908C10.0396 9.62979 10.2139 9.56051 10.3185 9.59515C10.7717 9.83765 11.2249 10.1148 11.6432 10.3226Z" fill="white"/>
<path d="M15.2345 5.7168C15.6877 6.02858 16.0712 6.34035 16.4895 6.65213C15.862 7.03319 15.2345 7.37961 14.5722 7.76068C14.7465 8.00317 14.8859 8.21102 15.0254 8.45352C15.3391 8.14174 15.618 7.89925 15.9666 7.58747C16.2804 8.03781 16.5941 8.48816 16.9079 8.93851C16.5941 9.07707 16.3152 9.21564 16.0363 9.35421C15.7575 9.49278 15.8272 9.70063 16.0015 9.87384C16.1758 10.0471 16.2106 10.4628 16.5941 10.1856C17.1519 9.76991 17.6748 9.35421 18.1977 8.90386C18.3371 9.31957 18.4766 9.80456 18.616 10.3242C18.6509 10.3935 18.5812 10.5667 18.5114 10.6013C17.5702 11.2595 16.6638 11.8831 15.7226 12.5413C15.1997 11.3981 13.1778 8.48816 12.376 7.72603V7.69139C13.3172 7.03319 14.2584 6.375 15.2345 5.7168Z" fill="white"/>
<path d="M32.2109 54.0762C33.2568 54.0762 34.3374 54.0762 35.4181 54.0762C35.5227 54.0762 35.6621 54.1455 35.697 54.2494C35.8713 54.6997 36.0107 55.1501 36.1502 55.5658C35.5575 55.5311 35.0346 55.4619 34.4769 55.4619C33.8494 55.4272 33.8494 55.4619 33.9888 56.224C34.3723 56.1893 34.7906 56.12 35.1741 56.0854C35.1741 56.605 35.1741 57.1593 35.1741 57.7136C34.8952 57.6789 34.6163 57.6097 34.3374 57.575C34.0237 57.5404 33.8842 57.6443 33.9191 57.9907C33.954 58.2679 33.8494 58.6143 34.3026 58.5796C34.9649 58.545 35.5924 58.4757 36.2896 58.4411C36.1502 58.8914 35.9759 59.411 35.8016 59.9653C34.5815 59.9653 33.3613 59.9653 32.2109 59.9653C32.3504 57.9907 32.3504 56.0508 32.2109 54.0762Z" fill="white"/>
<path d="M11.2598 58.3713C11.8524 58.4406 12.445 58.5098 13.0377 58.5445C13.3863 58.5791 13.6651 58.4406 13.7 58.0595C13.7349 57.6784 13.456 57.6091 13.1422 57.5052C12.7588 57.4013 12.3753 57.332 12.0267 57.1242C11.2249 56.7085 11.3992 55.9117 11.4341 55.2188C11.4689 54.8378 12.5496 54.041 12.9331 54.041C13.4908 54.041 14.0138 54.041 14.5715 54.041C14.8155 54.041 14.9201 54.1103 14.9898 54.3528C15.0944 54.7685 15.2687 55.1496 15.3733 55.5306C14.8155 55.496 14.2578 55.4267 13.7 55.4267C13.4908 55.4267 13.2817 55.6692 13.1074 55.7731C13.2817 55.9117 13.4211 56.0849 13.6303 56.1888C14.0138 56.362 14.4321 56.3967 14.7807 56.6045C15.6871 57.1242 15.4082 57.9902 15.4082 58.787C15.4082 59.168 14.2926 59.9302 13.9092 59.9302C13.3165 59.9302 12.7239 59.9302 12.1661 59.9302C11.9221 59.9302 11.8175 59.8609 11.7478 59.6184C11.5735 59.2027 11.3992 58.7523 11.2598 58.3713Z" fill="white"/>
<path d="M21.2648 7.30894C21.8574 7.13573 22.4501 6.96252 23.0078 6.78931C23.3216 6.68538 23.4959 6.47753 23.3913 6.13111C23.2867 5.78469 23.0078 5.81933 22.7289 5.85397C22.3455 5.88862 21.9271 5.9579 21.5437 5.92326C20.6373 5.81933 20.463 5.05721 20.2887 4.36437C20.219 4.12187 20.463 3.8101 20.5676 3.49832C20.707 3.01333 21.0208 2.70155 21.5437 2.56298C21.9271 2.45906 22.3106 2.32049 22.6592 2.14728C22.973 2.00871 23.1821 2.00871 23.3913 2.32049C23.6005 2.63227 23.8793 2.9094 24.0885 3.18654C23.5656 3.35975 23.0427 3.49832 22.5198 3.63688C22.206 3.74081 21.9969 3.91402 22.0666 4.2258C22.1363 4.57222 22.4501 4.43365 22.6941 4.39901C23.0775 4.36437 23.461 4.29508 23.8445 4.32973C24.8903 4.46829 25.0297 5.40363 25.2738 6.2004C25.4132 6.6161 24.6463 7.69 24.2279 7.82857C23.705 8.03642 23.1821 8.24428 22.6244 8.41749C22.5198 8.45213 22.3106 8.45213 22.2409 8.38284C21.8574 8.07107 21.5437 7.65536 21.2648 7.30894Z" fill="white"/>
<path d="M50.9665 55.7394C50.9665 55.6354 50.9665 55.6008 50.9665 55.5661C51.1408 55.0812 51.1756 54.423 51.5242 54.1458C51.838 53.9033 52.4655 54.1458 52.9535 54.0419C53.8948 53.8687 54.3479 54.5269 54.8709 55.0812C55.1149 55.3237 54.9406 56.6054 54.6966 56.8479C54.1736 57.3675 53.6507 57.8872 53.1278 58.4068C53.1278 58.4414 53.1627 58.5107 53.1627 58.5454C53.8599 58.4761 54.592 58.4068 55.324 58.3375C55.1846 58.7878 55.0103 59.3075 54.836 59.7925C54.8011 59.8964 54.6268 59.9657 54.5222 59.9657C53.5462 59.9657 52.5352 60.0003 51.5591 59.9657C51.4197 59.9657 51.2105 59.7578 51.1059 59.6193C50.7224 58.9611 50.7573 58.9611 51.2802 58.4068C51.9077 57.7832 52.5003 57.1943 53.093 56.5708C53.337 56.3283 53.4764 56.0511 53.337 55.7047C53.1975 55.3583 52.8838 55.3237 52.5701 55.3583C52.326 55.3929 52.0471 55.4276 51.8031 55.4969C51.5242 55.5315 51.2802 55.6354 50.9665 55.7394Z" fill="white"/>
<path d="M39.5668 55.739C39.7759 55.1154 39.9502 54.5958 40.1245 54.0762C40.8566 54.0762 41.5887 54.0762 42.2859 54.0762C42.4253 54.0762 42.6345 54.1801 42.7042 54.284C43.018 54.6651 43.5409 54.8383 43.5757 55.4619C43.6454 56.2586 43.4711 56.9168 42.7739 57.4364C42.3905 57.7136 42.0767 58.0946 41.7281 58.4064C41.763 58.4757 41.763 58.5104 41.7978 58.5796C42.495 58.5104 43.1923 58.4411 43.9243 58.3718C43.7849 58.8221 43.6106 59.3418 43.4014 59.8267C43.3666 59.896 43.1923 59.9653 43.0877 60C42.1116 60 41.1355 60 40.1594 60C39.8108 60 39.7759 59.7575 39.6365 59.5843C39.3227 59.1339 39.3576 58.8221 39.8108 58.4757C40.4383 57.9561 40.996 57.3325 41.5538 56.7436C41.6584 56.6397 41.7978 56.5011 41.8676 56.3625C42.1464 55.8429 41.9024 55.3926 41.3098 55.3926C40.996 55.3926 40.6474 55.4619 40.3337 55.5311C40.1245 55.5311 39.8805 55.6351 39.5668 55.739Z" fill="white"/>
<path d="M56.8579 11.8485C56.3349 12.2295 55.8469 12.576 55.3588 12.9224C54.7662 12.5067 54.1736 12.091 53.6507 11.6753C53.5112 11.5367 53.4764 11.2942 53.3718 11.0864C53.0581 10.2203 53.3021 9.52747 53.8947 8.86927C54.313 8.41892 54.6268 7.93393 54.9405 7.4143C55.1497 7.13717 55.3937 6.9986 55.7075 6.92931C56.5441 6.72146 57.2413 6.82539 57.8339 7.44894C58.078 7.69144 58.4266 7.89929 58.7403 8.10714C58.566 8.66142 58.3917 9.18105 58.1825 9.8046C57.9734 9.56211 57.8339 9.35426 57.6596 9.1464C57.2065 8.52285 56.3349 8.24571 55.7772 9.18105C55.6726 9.3889 55.4983 9.56211 55.3588 9.76996C54.7662 10.5667 55.0102 11.2596 55.9515 11.606C56.2304 11.6753 56.5092 11.7446 56.8579 11.8485Z" fill="white"/>
<path d="M30.9217 55.7746C30.5382 55.6706 30.2244 55.5321 29.9107 55.4628C29.2484 55.3242 28.5163 55.636 28.586 56.5367C28.6209 56.8138 28.6209 57.091 28.586 57.3681C28.4814 58.5113 29.3181 58.6845 30.1547 58.5113C30.3987 58.442 30.6428 58.3381 30.9914 58.2341C30.8171 58.7884 30.6776 59.2734 30.4685 59.7584C30.4336 59.8277 30.2593 59.9316 30.1547 59.9316C29.5272 59.9316 28.9346 59.9663 28.3071 59.9316C28.1677 59.9316 27.9934 59.8277 27.8539 59.7584C27.087 59.2041 26.6687 58.5113 26.843 57.5067C26.9127 57.1602 26.9127 56.7792 26.843 56.3981C26.7384 55.5321 26.9824 54.9085 27.6796 54.3542C27.9585 54.1464 28.1677 54.0078 28.5163 54.0078C29.0043 54.0425 29.4924 54.0425 29.9456 54.0078C30.1896 54.0078 30.329 54.0771 30.3987 54.3196C30.6079 54.8392 30.7474 55.2896 30.9217 55.7746Z" fill="white"/>
<path d="M56.6133 13.8573C58.0426 12.6448 59.4021 11.2591 60.6571 9.76953C61.0754 10.1852 61.5635 10.6702 61.9818 11.1552C60.7617 11.8827 59.925 13.1298 58.7398 14.1691C59.3324 14.6541 59.8902 15.0698 60.4479 15.5201C60.0296 15.728 59.5764 15.9705 59.0884 16.1783C59.0187 16.2129 58.8095 16.1437 58.7398 16.0744C58.0077 15.3123 57.2756 14.5501 56.6133 13.8573Z" fill="white"/>
<path d="M18.7548 59.9307C18.1622 59.9307 17.4999 59.9307 16.9072 59.9307C17.0815 57.9907 17.0467 56.0508 16.9072 54.0762C17.4999 54.0762 18.1622 54.0762 18.7897 54.0762C18.5805 56.0161 18.6154 57.9561 18.7548 59.9307Z" fill="white"/>
<path d="M58.5314 59.9307C57.9387 59.9307 57.2764 59.9307 56.614 59.9307C57.0324 58.5104 56.7186 57.0554 56.8581 55.6004C56.5792 55.6004 56.4049 55.5658 56.126 55.5658C56.37 55.0808 56.5792 54.6304 56.8232 54.2147C56.858 54.1455 56.9975 54.0762 57.0672 54.0762C57.4855 54.0762 57.9387 54.0762 58.3919 54.0762C58.3919 54.7344 58.3919 55.3579 58.3919 55.9468C58.3919 56.6397 58.3571 57.3672 58.3919 58.06C58.4268 58.6836 58.4965 59.3071 58.5314 59.9307Z" fill="white"/>
</g>
<defs>
<clipPath id="clip0_295_15020">
<rect width="70" height="60" fill="white"/>
</clipPath>
</defs>
</svg>
