<svg xmlns="http://www.w3.org/2000/svg" width="41" height="22" viewBox="0 0 41 22">
    <g fill="none" fill-rule="evenodd">
        <g fill="#171B1D">
            <g>
                <path d="M39.526 4.447l-.051-.249C38.93 1.598 36.71 0 33.642 0H6.048C2.98 0 .738 1.617.194 4.218l-.051.248C.046 5.032-.003 5.597 0 6.286v7.279c.004.904.096 1.55.097 1.557l.003.027c.362 2.994 2.585 4.781 5.948 4.781H25.996c.174 0 .315-.14.315-.315V7.828v-.003c0-.174-.14-.315-.315-.315h-.001-1.148-.004c-.173 0-.314.14-.314.315v10.332H6.493c-2.986 0-4.7-1.823-4.703-4.53l.002-7.357c0-2.73 1.714-4.49 4.701-4.49h26.705c2.988 0 4.682 1.74 4.682 4.471l.002 7.358c-.003 2.707-1.699 4.538-4.685 4.538l-.611.008c-.253.003-.474.004-.73.005h-.342c-.174 0-.315.14-.315.315V19.608l-.001.003c0 .174.141.315.315.315h.23l.57-.001.324-.004h1.005c3.363 0 5.564-1.796 5.926-4.79l.004-.027c0-.007.092-.653.096-1.558V6.268c.003-.69-.045-1.254-.142-1.821" transform="translate(-162 -923) rotate(1 -52838.456 9810.975)"/>
                <path d="M16.51 12.89c0 1.194.745 2.004 1.858 2.004h.496c.176 0 .319-.142.319-.318v-.996-.002c0-.08-.031-.162-.093-.224-.062-.061-.143-.092-.224-.091h-.574V5.297v-.003c0-.174-.14-.315-.314-.315h-.002H16.825c-.175 0-.316.141-.316.315v7.596M20.52 8.47l-.001.002V12.9c0 1.192.748 1.994 1.861 1.994h.482c.174 0 .315-.142.315-.316v-.998-.003c0-.041-.008-.082-.024-.121-.016-.038-.038-.072-.068-.102-.062-.062-.143-.092-.224-.092h-.559v-4.79-.002c0-.174-.141-.315-.315-.315H20.836h-.002c-.174 0-.315.14-.315.315M20.835 6.727h1.151c.13 0 .243-.08.29-.192.017-.037.026-.079.026-.123V5.295c0-.044-.01-.086-.026-.123-.047-.113-.16-.192-.29-.192H20.837h-.002c-.174 0-.315.14-.315.311v1.121c0 .038.009.073.02.107.044.12.158.208.295.208M15.143 5.43c.006-.012.009-.025.014-.038.006-.021.01-.043.012-.064.001-.012-.003-.088-.007-.104-.01-.037-.026-.07-.045-.102-.007-.012-.013-.022-.02-.031-.014-.015-.029-.027-.045-.04-.013-.01-.027-.02-.042-.028-.015-.008-.03-.016-.046-.022-.03-.01-.107-.02-.108-.02H13.54c-.011 0-.035 0-.045.002-.031.007-.047.01-.076.021-.038.017-.073.04-.102.07L9.275 8.546c-.446.445-.485 1.15-.092 1.642l4.098 4.567.02.019.013.014c.026.023.054.043.086.058l.018.006c.034.013.07.021.108.022h1.349l.009-.002c.033 0 .065-.008.096-.019.013-.005.025-.01.037-.017.02-.01.04-.023.057-.038.01-.008.021-.016.03-.026.022-.023.04-.049.055-.078l.001-.005c.005-.01.007-.02.01-.03.01-.028.015-.055.017-.083v-.03c-.001-.067-.023-.134-.067-.188l-4.357-4.99 4.317-3.846c.028-.027.047-.059.063-.093M8.044 5.285c0-.174-.141-.315-.315-.315h-1.15-.003c-.039 0-.075.01-.11.022-.01.004-.02.01-.029.015-.024.012-.046.026-.065.044l-.025.022c-.023.025-.042.053-.056.084l-.004.006v.001c-.016.038-.026.08-.026.124v9.27c0 .044.01.085.026.124.047.113.16.193.29.193H7.73c.174 0 .315-.141.315-.315V5.287v-.003M33.323 11.731l.014-.058.01-.062c.14-.81.027-1.614.023-1.64-.183-1.518-1.338-2.46-3.014-2.46h-2.862-.001c-.087 0-.167.035-.224.093-.057.057-.093.136-.093.224v1.13c0 .045.01.087.026.125.031.075.092.136.167.168.039.016.08.025.125.025h2.668c1.06 0 1.598.48 1.599 1.407v.032c0 .948-.538 1.428-1.599 1.428h-2.668c-.016 0-.03.007-.045.01-.026.003-.052.005-.077.015-.033.013-.061.035-.088.058l-.015.01c-.005.005-.006.011-.01.017-.024.026-.045.054-.058.086-.01.023-.011.047-.015.071-.003.017-.01.033-.01.051v1.132c0 .175.141.316.315.316h2.901c1.55 0 2.652-.84 2.931-2.178" transform="translate(-162 -923) rotate(1 -52838.456 9810.975)"/>
            </g>
        </g>
    </g>
</svg>
