<svg width="32" height="32" viewBox="0 0 32 32" fill="none" xmlns="http://www.w3.org/2000/svg">
<g clip-path="url(#clip0_320_62418)">
<path d="M27.0901 5.99646C25.0298 5.06195 22.7942 4.3823 20.4709 4C20.2079 4.50973 19.8572 5.1469 19.6381 5.69912C17.1833 5.35929 14.7285 5.35929 12.3175 5.69912C12.0983 5.1469 11.7476 4.50973 11.4408 4C9.11751 4.3823 6.92573 5.06195 4.82162 5.99646C0.701072 12.1133 -0.438654 18.1027 0.131209 23.9646C2.89285 25.9611 5.56683 27.1929 8.2408 28C8.89833 27.1504 9.4682 26.2159 9.99422 25.2389C9.02984 24.8991 8.10929 24.4743 7.27642 23.9646C7.49559 23.7947 7.71477 23.6248 7.93395 23.4549C13.1942 25.8336 18.8929 25.8336 24.1093 23.4549C24.3285 23.6248 24.5477 23.7947 24.7668 23.9646C23.8901 24.4743 22.9696 24.8991 22.049 25.2389C22.5312 26.2159 23.1449 27.1504 23.8024 28C26.4326 27.1929 29.1504 26.0035 31.912 23.9646C32.5257 17.1681 30.7285 11.2637 27.0901 5.99646ZM10.6956 20.354C9.11751 20.354 7.80244 18.9097 7.80244 17.1681C7.80244 15.4265 9.07368 13.9823 10.6956 13.9823C12.3175 13.9823 13.5887 15.4265 13.5887 17.1681C13.5449 18.9097 12.2737 20.354 10.6956 20.354ZM21.3038 20.354C19.7257 20.354 18.4107 18.9097 18.4107 17.1681C18.4107 15.4265 19.6819 13.9823 21.3038 13.9823C22.9257 13.9823 24.197 15.4265 24.197 17.1681C24.197 18.9097 22.9257 20.354 21.3038 20.354Z" fill="#5A67EA"/>
</g>
<defs>
<clipPath id="clip0_320_62418">
<rect width="32" height="24" fill="white" transform="translate(0 4)"/>
</clipPath>
</defs>
</svg>
