<svg width="32" height="32" viewBox="0 0 32 32" fill="none" xmlns="http://www.w3.org/2000/svg">
<g clip-path="url(#clip0_320_62406)">
<path d="M28.0002 3.00024H4.00024C3.47335 2.99448 2.95062 3.09401 2.46272 3.29299C1.97481 3.49197 1.53157 3.78639 1.15898 4.15898C0.786391 4.53157 0.49197 4.97481 0.29299 5.46272C0.0940102 5.95062 -0.00552114 6.47335 0.000236237 7.00024V25.0002C-0.00552114 25.5271 0.0940102 26.0499 0.29299 26.5378C0.49197 27.0257 0.786391 27.4689 1.15898 27.8415C1.53157 28.2141 1.97481 28.5085 2.46272 28.7075C2.95062 28.9065 3.47335 29.006 4.00024 29.0002H28.0002C28.5271 29.006 29.0499 28.9065 29.5378 28.7075C30.0257 28.5085 30.4689 28.2141 30.8415 27.8415C31.2141 27.4689 31.5085 27.0257 31.7075 26.5378C31.9065 26.0499 32.006 25.5271 32.0002 25.0002V7.00024C32.006 6.47335 31.9065 5.95062 31.7075 5.46272C31.5085 4.97481 31.2141 4.53157 30.8415 4.15898C30.4689 3.78639 30.0257 3.49197 29.5378 3.29299C29.0499 3.09401 28.5271 2.99448 28.0002 3.00024ZM28.6002 9.80024L16.6002 18.8002C16.4271 18.9301 16.2166 19.0002 16.0002 19.0002C15.7839 19.0002 15.5733 18.9301 15.4002 18.8002L3.40024 9.80024C3.18806 9.64111 3.04779 9.40421 3.01029 9.14166C2.97278 8.87911 3.04111 8.61241 3.20024 8.40024C3.35937 8.18806 3.59626 8.04779 3.85881 8.01029C4.12137 7.97278 4.38806 8.04111 4.60024 8.20024L16.0002 16.7502L27.4002 8.20024C27.5053 8.12144 27.6248 8.06411 27.7521 8.03152C27.8793 7.99893 28.0117 7.99171 28.1417 8.01029C28.2717 8.02886 28.3967 8.07285 28.5097 8.13976C28.6227 8.20667 28.7214 8.29518 28.8002 8.40024C28.879 8.50529 28.9364 8.62484 28.969 8.75205C29.0015 8.87927 29.0088 9.01166 28.9902 9.14166C28.9716 9.27166 28.9276 9.39673 28.8607 9.50973C28.7938 9.62273 28.7053 9.72144 28.6002 9.80024Z" fill="white"/>
</g>
<defs>
<clipPath id="clip0_320_62406">
<rect width="32" height="32" fill="white"/>
</clipPath>
</defs>
</svg>
