<svg width="32" height="32" viewBox="0 0 32 32" fill="none" xmlns="http://www.w3.org/2000/svg">
<path fill-rule="evenodd" clip-rule="evenodd" d="M16 0.398438C7.2 0.398438 0 7.59844 0 16.3984C0 23.4984 4.6 29.4984 10.9 31.5984C11.7 31.6984 12 31.2984 12 30.7984C12 30.3984 12 29.3984 12 28.0984C7.5 29.0984 6.6 25.9984 6.6 25.9984C5.9 24.1984 4.8 23.6984 4.8 23.6984C3.3 22.6984 4.9 22.6984 4.9 22.6984C6.5 22.7984 7.4 24.2984 7.4 24.2984C8.8 26.6984 11.1 25.9984 12.1 25.5984C12.2 24.5984 12.7 23.8984 13.1 23.4984C9.5 23.0984 5.8 21.6984 5.8 15.5984C5.8 13.8984 6.4 12.3984 7.4 11.2984C7.2 10.8984 6.7 9.29844 7.6 7.09844C7.6 7.09844 8.9 6.69844 12 8.69844C13.3 8.29844 14.6 8.19844 16 8.19844C17.4 8.19844 18.7 8.39844 20 8.69844C23.1 6.59844 24.4 6.99844 24.4 6.99844C25.3 9.19844 24.7 10.7984 24.6 11.1984C25.6 12.2984 26.2 13.6984 26.2 15.4984C26.2 21.5984 22.5 22.9984 18.9 23.3984C19.5 23.8984 20 24.8984 20 26.3984C20 28.4984 20 30.2984 20 30.7984C20 31.1984 20.3 31.6984 21.1 31.5984C27.4 29.4984 32 23.4984 32 16.3984C32 7.59844 24.8 0.398438 16 0.398438Z" fill="white"/>
</svg>
