<svg width="32" height="32" viewBox="0 0 32 32" fill="none" xmlns="http://www.w3.org/2000/svg">
<rect x="5" y="9" width="21" height="16" fill="white"/>
<path d="M31.7 9.59922C31.7 9.59922 31.4 7.39922 30.4 6.39922C29.2 5.09922 27.8 5.09922 27.2 4.99922C22.7 4.69922 16 4.69922 16 4.69922C16 4.69922 9.3 4.69922 4.8 4.99922C4.2 5.09922 2.8 5.09922 1.6 6.39922C0.6 7.39922 0.3 9.59922 0.3 9.59922C0.3 9.59922 0 12.1992 0 14.7992V17.1992C0 19.7992 0.3 22.3992 0.3 22.3992C0.3 22.3992 0.6 24.5992 1.6 25.5992C2.8 26.8992 4.4 26.7992 5.1 26.9992C7.7 27.1992 16 27.2992 16 27.2992C16 27.2992 22.7 27.2992 27.2 26.9992C27.8 26.8992 29.2 26.8992 30.4 25.5992C31.4 24.5992 31.7 22.3992 31.7 22.3992C31.7 22.3992 32 19.7992 32 17.1992V14.7992C32 12.1992 31.7 9.59922 31.7 9.59922ZM12.7 20.1992V11.1992L21.3 15.6992L12.7 20.1992Z" fill="#EC3323"/>
</svg>
