<svg width="16" height="14" viewBox="0 0 16 14" fill="none" xmlns="http://www.w3.org/2000/svg">
<path d="M16 1.91279C15.4 2.1877 14.8 2.39389 14.1333 2.46262C14.8 2.05024 15.3333 1.36296 15.6 0.606945C14.9333 1.01932 14.2667 1.29423 13.5333 1.43169C12.9333 0.744402 12.0667 0.332031 11.1333 0.332031C9.33333 0.332031 7.86667 1.84406 7.86667 3.69973C7.86667 3.97464 7.86667 4.24956 7.93333 4.45574C5.13333 4.31829 2.73333 2.94371 1.13333 0.881859C0.8 1.43169 0.666667 1.98152 0.666667 2.60007C0.666667 3.76846 1.26667 4.79939 2.13333 5.41794C1.6 5.41794 1.06667 5.28048 0.666667 5.00557C0.666667 5.00557 0.666667 5.00557 0.666667 5.0743C0.666667 6.72378 1.8 8.09835 3.26667 8.37327C3 8.442 2.73333 8.51073 2.4 8.51073C2.2 8.51073 2 8.51073 1.8 8.442C2.2 9.81657 3.4 10.7788 4.86667 10.7788C3.73333 11.6722 2.33333 12.2221 0.8 12.2221C0.533333 12.2221 0.266667 12.2221 0 12.1533C1.46667 13.1155 3.2 13.6654 5 13.6654C11.0667 13.6654 14.3333 8.51073 14.3333 4.04337C14.3333 3.90591 14.3333 3.76846 14.3333 3.631C15 3.1499 15.5333 2.53134 16 1.91279Z" fill="#4D4D4D"/>
</svg>
