<svg width="32" height="24" viewBox="0 0 32 24" fill="none" xmlns="http://www.w3.org/2000/svg">
<path d="M14.4007 19.6999C14.9007 19.6999 15.3507 20.0999 15.3507 20.6499C15.3507 21.1499 14.9507 21.5999 14.4007 21.5999C13.9007 21.5999 13.4507 21.1999 13.4507 20.6499C13.4507 20.0999 13.9007 19.6999 14.4007 19.6999ZM29.1007 13.8999C28.6007 13.8999 28.1507 13.4999 28.1507 12.9499C28.1507 12.4499 28.5507 11.9999 29.1007 11.9999C29.6007 11.9999 30.0507 12.3999 30.0507 12.9499C30.0507 13.4499 29.6007 13.8999 29.1007 13.8999ZM29.1007 10.0499C27.5007 10.0499 26.2007 11.3499 26.2007 12.9499C26.2007 13.2499 26.2507 13.5499 26.3507 13.8499L16.8007 18.9499C16.2507 18.1499 15.3507 17.6999 14.4007 17.6999C13.3007 17.6999 12.3007 18.3499 11.8007 19.2999L3.20072 14.7999C2.30072 14.2999 1.60072 12.8499 1.70072 11.4499C1.75072 10.7499 2.00072 10.1999 2.35072 9.99992C2.60072 9.84992 2.85072 9.89992 3.20072 10.0499L3.25072 10.0999C5.55072 11.2999 13.0007 15.1999 13.3007 15.3499C13.8007 15.5499 14.0507 15.6499 14.9007 15.2499L30.3007 7.24992C30.5507 7.14992 30.8007 6.94992 30.8007 6.59992C30.8007 6.14992 30.3507 5.94992 30.3507 5.94992C29.4507 5.54992 28.1007 4.89992 26.8007 4.29992C24.0007 2.99992 20.8007 1.49992 19.4007 0.749922C18.2007 0.0999224 17.2007 0.649922 17.0507 0.749922L16.7007 0.899923C10.3507 4.09992 1.95072 8.24992 1.45072 8.54992C0.600721 9.04992 0.0507211 10.0999 0.00072107 11.3999C-0.0992789 13.4499 0.950721 15.5999 2.45072 16.3499L11.5507 21.0499C11.7507 22.4499 13.0007 23.5499 14.4007 23.5499C16.0007 23.5499 17.2507 22.2999 17.3007 20.6999L27.3007 15.2999C27.8007 15.6999 28.4507 15.8999 29.1007 15.8999C30.7007 15.8999 32.0007 14.5999 32.0007 12.9999C32.0007 11.3499 30.7007 10.0499 29.1007 10.0499Z" fill="#4285FD"/>
</svg>
