<svg width="24" height="24" viewBox="0 0 24 24" fill="none" xmlns="http://www.w3.org/2000/svg">
<path d="M12 2.775C15 2.775 15.36 2.78625 16.5457 2.84025C17.2593 2.84867 17.9662 2.97984 18.6352 3.228C19.1237 3.40832 19.5656 3.69588 19.9282 4.0695C20.3019 4.43218 20.5894 4.87402 20.7697 5.3625C21.0179 6.0316 21.1491 6.73841 21.1575 7.452C21.2115 8.64 21.225 9 21.225 12C21.225 15 21.2137 15.36 21.1597 16.5458C21.1513 17.2593 21.0202 17.9662 20.772 18.6353C20.5847 19.1202 20.2981 19.5606 19.9305 19.9282C19.5629 20.2958 19.1225 20.5825 18.6375 20.7698C17.9684 21.0179 17.2616 21.1491 16.548 21.1575C15.3622 21.2115 15.006 21.2228 12.0022 21.2228C8.9985 21.2228 8.64225 21.2115 7.4565 21.1575C6.74291 21.1491 6.0361 21.0179 5.367 20.7698C4.87852 20.5894 4.43668 20.3019 4.074 19.9282C3.70038 19.5656 3.41282 19.1237 3.2325 18.6353C2.98434 17.9662 2.85317 17.2593 2.84475 16.5458C2.7885 15.36 2.775 15.0037 2.775 12C2.775 8.99625 2.78625 8.64 2.84025 7.45425C2.84867 6.74066 2.97984 6.03385 3.228 5.36475C3.40898 4.87606 3.69731 4.4342 4.07175 4.07175C4.43443 3.69813 4.87627 3.41057 5.36475 3.23025C6.03385 2.98209 6.74066 2.85092 7.45425 2.8425C8.64 2.7885 9 2.775 12 2.775ZM12 0.75C8.9445 0.75 8.56125 0.76275 7.362 0.8175C6.42842 0.83728 5.5049 1.01478 4.6305 1.3425C3.88032 1.62483 3.20059 2.06707 2.6385 2.6385C2.06626 3.20037 1.62324 3.88012 1.34025 4.6305C1.01253 5.5049 0.83503 6.42842 0.81525 7.362C0.76275 8.56125 0.75 8.9445 0.75 12C0.75 15.0555 0.76275 15.4388 0.8175 16.638C0.83728 17.5716 1.01478 18.4951 1.3425 19.3695C1.62549 20.1199 2.06851 20.7996 2.64075 21.3615C3.20262 21.9337 3.88237 22.3768 4.63275 22.6597C5.50715 22.9875 6.43067 23.165 7.36425 23.1847C8.56425 23.2395 8.94675 23.2523 12.0022 23.2523C15.0577 23.2523 15.441 23.2395 16.6402 23.1847C17.5738 23.165 18.4974 22.9875 19.3717 22.6597C20.1188 22.3702 20.7972 21.928 21.3638 21.3615C21.9303 20.795 22.3724 20.1165 22.662 19.3695C22.9897 18.4951 23.1672 17.5716 23.187 16.638C23.2417 15.438 23.2545 15.0555 23.2545 12C23.2545 8.9445 23.2417 8.56125 23.187 7.362C23.1672 6.42842 22.9897 5.5049 22.662 4.6305C22.379 3.88012 21.936 3.20037 21.3637 2.6385C20.8019 2.06626 20.1221 1.62324 19.3717 1.34025C18.4974 1.01253 17.5738 0.83503 16.6402 0.81525C15.4387 0.76275 15.0555 0.75 12 0.75Z" fill="white"/>
<path d="M12.0001 6.22461C10.8579 6.22461 9.74138 6.56331 8.79168 7.19787C7.84199 7.83244 7.10179 8.73437 6.6647 9.78961C6.2276 10.8449 6.11324 12.006 6.33607 13.1263C6.55889 14.2465 7.10891 15.2755 7.91656 16.0832C8.72421 16.8908 9.75321 17.4408 10.8735 17.6636C11.9937 17.8865 13.1549 17.7721 14.2101 17.335C15.2653 16.8979 16.1673 16.1577 16.8018 15.208C17.4364 14.2583 17.7751 13.1418 17.7751 11.9996C17.7751 10.468 17.1667 8.99909 16.0836 7.91607C15.0006 6.83304 13.5317 6.22461 12.0001 6.22461ZM12.0001 15.7496C11.2584 15.7496 10.5334 15.5297 9.91671 15.1176C9.30003 14.7056 8.81938 14.1199 8.53555 13.4347C8.25172 12.7494 8.17746 11.9954 8.32216 11.268C8.46685 10.5406 8.824 9.87241 9.34845 9.34796C9.8729 8.82351 10.5411 8.46636 11.2685 8.32166C11.9959 8.17697 12.7499 8.25123 13.4352 8.53506C14.1204 8.81889 14.7061 9.29954 15.1181 9.91622C15.5302 10.5329 15.7501 11.2579 15.7501 11.9996C15.7501 12.9942 15.355 13.948 14.6518 14.6513C13.9485 15.3545 12.9947 15.7496 12.0001 15.7496Z" fill="white"/>
<path d="M18.0053 7.34453C18.7509 7.34453 19.3553 6.74012 19.3553 5.99453C19.3553 5.24895 18.7509 4.64453 18.0053 4.64453C17.2597 4.64453 16.6553 5.24895 16.6553 5.99453C16.6553 6.74012 17.2597 7.34453 18.0053 7.34453Z" fill="white"/>
</svg>
