<svg width="42" height="48" viewBox="0 0 42 48" fill="none" xmlns="http://www.w3.org/2000/svg">
<path d="M31.0005 9.50048C30.8035 9.50039 30.6084 9.53911 30.4263 9.61444C30.2443 9.68976 30.0788 9.80021 29.9395 9.93948L21.0005 18.8795L12.0615 9.93948C11.7801 9.65809 11.3984 9.5 11.0005 9.5C10.6025 9.5 10.2209 9.65809 9.93948 9.93948C9.65809 10.2209 9.5 10.6025 9.5 11.0005C9.5 11.3984 9.65809 11.7801 9.93948 12.0615L19.9395 22.0615C20.0788 22.2009 20.2442 22.3114 20.4262 22.3869C20.6083 22.4623 20.8034 22.5012 21.0005 22.5012C21.1975 22.5012 21.3927 22.4623 21.5747 22.3869C21.7568 22.3114 21.9222 22.2009 22.0615 22.0615L32.0615 12.0615C32.2714 11.8517 32.4144 11.5844 32.4723 11.2933C32.5302 11.0022 32.5005 10.7005 32.3869 10.4264C32.2734 10.1522 32.081 9.91787 31.8342 9.75306C31.5874 9.58825 31.2973 9.50035 31.0005 9.50048Z" fill="white"/>
<path d="M31.0005 1.50048C30.8035 1.50039 30.6084 1.53911 30.4263 1.61444C30.2443 1.68976 30.0788 1.80021 29.9395 1.93948L21.0005 10.8795L12.0615 1.93948C11.7801 1.65809 11.3984 1.5 11.0005 1.5C10.6025 1.5 10.2209 1.65809 9.93948 1.93948C9.65809 2.22088 9.5 2.60253 9.5 3.00048C9.5 3.39843 9.65809 3.78009 9.93948 4.06148L19.9395 14.0615C20.0788 14.2009 20.2442 14.3114 20.4262 14.3869C20.6083 14.4623 20.8034 14.5012 21.0005 14.5012C21.1975 14.5012 21.3927 14.4623 21.5747 14.3869C21.7568 14.3114 21.9222 14.2009 22.0615 14.0615L32.0615 4.06148C32.2714 3.8517 32.4144 3.58436 32.4723 3.2933C32.5302 3.00224 32.5005 2.70054 32.3869 2.42636C32.2734 2.15219 32.081 1.91787 31.8342 1.75306C31.5874 1.58825 31.2973 1.50035 31.0005 1.50048Z" fill="white"/>
<path d="M0 37.125H0.875V36.25H5.25V37.125H6.125V38H4.375V37.125H1.75V39.75H5.25V40.625H6.125V44.125H5.25V45H0.875V44.125H0V43.25H1.75V44.125H4.375V40.625H0.875V39.75H0V37.125ZM7 37.125H7.875V36.25H12.25V37.125H13.125V38H11.375V37.125H8.75V44.125H11.375V43.25H13.125V44.125H12.25V45H7.875V44.125H7V37.125ZM14 36.25H19.25V37.125H20.125V39.75H19.25V40.625H20.125V45H18.375V40.625H15.75V45H14V36.25ZM15.75 37.125V39.75H18.375V37.125H15.75ZM21 37.125H21.875V36.25H26.25V37.125H27.125V44.125H26.25V45H21.875V44.125H21V37.125ZM22.75 37.125V44.125H25.375V37.125H22.75ZM28 36.25H29.75V44.125H34.125V45H28V36.25ZM35 36.25H36.75V44.125H41.125V45H35V36.25Z" fill="white"/>
</svg>
