<svg width="48" height="48" viewBox="0 0 48 48" fill="none" xmlns="http://www.w3.org/2000/svg">
<path d="M36 26H32V13C32 10.8783 31.1571 8.84344 29.6569 7.34315C28.1566 5.84285 26.1217 5 24 5C21.8783 5 19.8434 5.84285 18.3431 7.34315C16.8429 8.84344 16 10.8783 16 13V26H12V13C12 9.8174 13.2643 6.76515 15.5147 4.51472C17.7652 2.26428 20.8174 1 24 1C27.1826 1 30.2348 2.26428 32.4853 4.51472C34.7357 6.76515 36 9.8174 36 13V26Z" fill="#C8C8C8"/>
<path d="M40 20H8C7.20435 20 6.44129 20.3161 5.87868 20.8787C5.31607 21.4413 5 22.2044 5 23V44C5 44.7956 5.31607 45.5587 5.87868 46.1213C6.44129 46.6839 7.20435 47 8 47H40C40.7957 47 41.5587 46.6839 42.1213 46.1213C42.6839 45.5587 43 44.7956 43 44V23C43 22.2044 42.6839 21.4413 42.1213 20.8787C41.5587 20.3161 40.7957 20 40 20Z" fill="#F2D648"/>
<path d="M28 30.9995C28.0033 30.2966 27.8214 29.6052 27.4724 28.9949C27.1235 28.3847 26.6199 27.8772 26.0124 27.5236C25.4049 27.1699 24.7149 26.9826 24.0119 26.9805C23.309 26.9784 22.6179 27.1616 22.0083 27.5116C21.3987 27.8616 20.8921 28.3661 20.5395 28.9742C20.1869 29.5824 20.0008 30.2727 20 30.9757C19.9992 31.6786 20.1836 32.3694 20.5347 32.9784C20.8858 33.5874 21.3912 34.0931 22 34.4445V39.9995C22 40.2648 22.1053 40.5191 22.2928 40.7067C22.4804 40.8942 22.7347 40.9995 23 40.9995H25C25.2652 40.9995 25.5195 40.8942 25.7071 40.7067C25.8946 40.5191 26 40.2648 26 39.9995V34.4445C26.6065 34.0965 27.1106 33.5949 27.4617 32.9901C27.8128 32.3854 27.9984 31.6988 28 30.9995Z" fill="#755C27"/>
</svg>
