<svg width="24" height="24" viewBox="0 0 24 24" fill="none" xmlns="http://www.w3.org/2000/svg">
<path d="M12 23.5C18.3513 23.5 23.5 18.3513 23.5 12C23.5 5.64873 18.3513 0.5 12 0.5C5.64873 0.5 0.5 5.64873 0.5 12C0.5 18.3513 5.64873 23.5 12 23.5Z" fill="url(#paint0_linear_490_33075)"/>
<path d="M8.28467 12.8401L9.65017 16.6166C9.65017 16.6166 9.82067 16.9701 10.0032 16.9701C10.1857 16.9701 12.9032 14.1436 12.9032 14.1436L15.9242 8.30859L8.33317 11.8656L8.28467 12.8401Z" fill="#C8DAEA"/>
<path d="M10.0937 13.8086L9.83172 16.5921C9.83172 16.5921 9.72222 17.4451 10.5747 16.5921C11.4272 15.7391 12.2437 15.0816 12.2437 15.0816L10.0937 13.8086Z" fill="#A9C6D8"/>
<path d="M8.30916 12.9758L5.50316 12.0613C5.50316 12.0613 5.16816 11.9253 5.27566 11.6168C5.29766 11.5528 5.34266 11.4988 5.47566 11.4053C6.09766 10.9718 16.9857 7.05828 16.9857 7.05828C17.1426 7.00316 17.3115 6.99124 17.4747 7.02378C17.5195 7.03771 17.5599 7.06327 17.5917 7.09787C17.6235 7.13248 17.6456 7.17489 17.6557 7.22078C17.6751 7.30178 17.6832 7.38507 17.6797 7.46828C17.6797 7.54028 17.6702 7.60728 17.6637 7.71228C17.5972 8.78178 15.6137 16.7678 15.6137 16.7678C15.6137 16.7678 15.4952 17.2348 15.0697 17.2508C14.9649 17.2545 14.8604 17.237 14.7626 17.1994C14.6647 17.1618 14.5754 17.1048 14.5002 17.0318C13.6652 16.3133 10.7797 14.3743 10.1422 13.9478C10.1283 13.9378 10.1167 13.9251 10.1081 13.9104C10.0994 13.8956 10.094 13.8792 10.0922 13.8623C10.0832 13.8173 10.1322 13.7623 10.1322 13.7623C10.1322 13.7623 15.1562 9.29628 15.2897 8.82778C15.3002 8.79178 15.2612 8.77378 15.2087 8.78928C14.8747 8.91228 9.09016 12.5648 8.45166 12.9683C8.4054 12.9819 8.3566 12.9844 8.30916 12.9758Z" fill="white"/>
<defs>
<linearGradient id="paint0_linear_490_33075" x1="12" y1="23.5" x2="12" y2="0.5" gradientUnits="userSpaceOnUse">
<stop stop-color="#1D93D2"/>
<stop offset="1" stop-color="#38B0E3"/>
</linearGradient>
</defs>
</svg>
