<svg width="24" height="24" viewBox="0 0 24 24" fill="none" xmlns="http://www.w3.org/2000/svg">
<path d="M24 4.37113C23.1 4.78351 22.2 5.09278 21.2 5.19588C22.2 4.57732 23 3.54639 23.4 2.41237C22.4 3.03093 21.4 3.4433 20.3 3.64948C19.4 2.61856 18.1 2 16.7 2C14 2 11.8 4.26804 11.8 7.05155C11.8 7.46392 11.8 7.87629 11.9 8.18557C7.7 7.97938 4.1 5.91753 1.7 2.82474C1.2 3.64948 1 4.47423 1 5.40206C1 7.15464 1.9 8.70103 3.2 9.62887C2.4 9.62887 1.6 9.42268 1 9.01031C1 9.01031 1 9.01031 1 9.1134C1 11.5876 2.7 13.6495 4.9 14.0619C4.5 14.1649 4.1 14.268 3.6 14.268C3.3 14.268 3 14.268 2.7 14.1649C3.3 16.2268 5.1 17.6701 7.3 17.6701C5.6 19.0103 3.5 19.8351 1.2 19.8351C0.8 19.8351 0.4 19.8351 0 19.732C2.2 21.1753 4.8 22 7.5 22C16.6 22 21.5 14.268 21.5 7.56701C21.5 7.36083 21.5 7.15464 21.5 6.94845C22.5 6.2268 23.3 5.29897 24 4.37113Z" fill="#479AE9"/>
</svg>
