<svg width="24" height="24" viewBox="0 0 24 24" fill="none" xmlns="http://www.w3.org/2000/svg">
<g clip-path="url(#clip0_490_33066)">
<path d="M20.3176 4.49735C18.7724 3.79646 17.0957 3.28673 15.3532 3C15.1559 3.3823 14.8929 3.86018 14.7285 4.27434C12.8875 4.01947 11.0464 4.01947 9.23813 4.27434C9.07375 3.86018 8.81074 3.3823 8.5806 3C6.83813 3.28673 5.1943 3.79646 3.61622 4.49735C0.525804 9.08496 -0.328991 13.577 0.0984066 17.9735C2.16964 19.4708 4.17512 20.3947 6.1806 21C6.67375 20.3628 7.10115 19.6619 7.49567 18.9292C6.77238 18.6743 6.08197 18.3558 5.45731 17.9735C5.6217 17.846 5.78608 17.7186 5.95046 17.5912C9.89567 19.3752 14.1696 19.3752 18.082 17.5912C18.2464 17.7186 18.4107 17.846 18.5751 17.9735C17.9176 18.3558 17.2272 18.6743 16.5368 18.9292C16.8984 19.6619 17.3587 20.3628 17.8518 21C19.8244 20.3947 21.8628 19.5027 23.934 17.9735C24.3943 12.8761 23.0464 8.44779 20.3176 4.49735ZM8.0217 15.2655C6.83813 15.2655 5.85183 14.1823 5.85183 12.8761C5.85183 11.5699 6.80526 10.4867 8.0217 10.4867C9.23813 10.4867 10.1916 11.5699 10.1916 12.8761C10.1587 14.1823 9.20526 15.2655 8.0217 15.2655ZM15.9779 15.2655C14.7943 15.2655 13.808 14.1823 13.808 12.8761C13.808 11.5699 14.7614 10.4867 15.9779 10.4867C17.1943 10.4867 18.1477 11.5699 18.1477 12.8761C18.1477 14.1823 17.1943 15.2655 15.9779 15.2655Z" fill="#5A67EA"/>
</g>
<defs>
<clipPath id="clip0_490_33066">
<rect width="24" height="18" fill="white" transform="translate(0 3)"/>
</clipPath>
</defs>
</svg>
