<svg width="16" height="16" viewBox="0 0 16 16" fill="none" xmlns="http://www.w3.org/2000/svg">
<path d="M8 1.85C10 1.85 10.24 1.8575 11.0305 1.8935C11.5062 1.89911 11.9774 1.98656 12.4235 2.152C12.7492 2.27222 13.0437 2.46392 13.2855 2.713C13.5346 2.95479 13.7263 3.24934 13.8465 3.575C14.0119 4.02107 14.0994 4.49228 14.105 4.968C14.141 5.76 14.15 6 14.15 8C14.15 10 14.1425 10.24 14.1065 11.0305C14.1009 11.5062 14.0134 11.9774 13.848 12.4235C13.7232 12.7468 13.5321 13.0404 13.287 13.2855C13.0419 13.5306 12.7483 13.7217 12.425 13.8465C11.9789 14.0119 11.5077 14.0994 11.032 14.105C10.2415 14.141 10.004 14.1485 8.0015 14.1485C5.999 14.1485 5.7615 14.141 4.971 14.105C4.49528 14.0994 4.02407 14.0119 3.578 13.8465C3.25234 13.7263 2.95779 13.5346 2.716 13.2855C2.46692 13.0437 2.27522 12.7492 2.155 12.4235C1.98956 11.9774 1.90211 11.5062 1.8965 11.0305C1.859 10.24 1.85 10.0025 1.85 8C1.85 5.9975 1.8575 5.76 1.8935 4.9695C1.89911 4.49378 1.98656 4.02257 2.152 3.5765C2.27265 3.2507 2.46487 2.95613 2.7145 2.7145C2.95629 2.46542 3.25084 2.27372 3.5765 2.1535C4.02257 1.98806 4.49378 1.90061 4.9695 1.895C5.76 1.859 6 1.85 8 1.85ZM8 0.5C5.963 0.5 5.7075 0.5085 4.908 0.545C4.28561 0.558186 3.66993 0.676521 3.087 0.895C2.58688 1.08322 2.13373 1.37805 1.759 1.759C1.37751 2.13358 1.08216 2.58675 0.8935 3.087C0.675021 3.66993 0.556686 4.28561 0.5435 4.908C0.5085 5.7075 0.5 5.963 0.5 8C0.5 10.037 0.5085 10.2925 0.545 11.092C0.558186 11.7144 0.676521 12.3301 0.895 12.913C1.08366 13.4133 1.37901 13.8664 1.7605 14.241C2.13508 14.6225 2.58825 14.9178 3.0885 15.1065C3.67143 15.325 4.28711 15.4433 4.9095 15.4565C5.7095 15.493 5.9645 15.5015 8.0015 15.5015C10.0385 15.5015 10.294 15.493 11.0935 15.4565C11.7159 15.4433 12.3316 15.325 12.9145 15.1065C13.4125 14.9135 13.8648 14.6187 14.2425 14.241C14.6202 13.8633 14.915 13.411 15.108 12.913C15.3265 12.3301 15.4448 11.7144 15.458 11.092C15.4945 10.292 15.503 10.037 15.503 8C15.503 5.963 15.4945 5.7075 15.458 4.908C15.4448 4.28561 15.3265 3.66993 15.108 3.087C14.9193 2.58675 14.624 2.13358 14.2425 1.759C13.8679 1.37751 13.4148 1.08216 12.9145 0.8935C12.3316 0.675021 11.7159 0.556686 11.0935 0.5435C10.2925 0.5085 10.037 0.5 8 0.5Z" fill="#4D4D4D"/>
<path d="M7.99844 4.1499C7.23698 4.1499 6.49262 4.3757 5.85949 4.79874C5.22636 5.22179 4.7329 5.82308 4.4415 6.52657C4.15011 7.23007 4.07386 8.00417 4.22242 8.751C4.37097 9.49783 4.73765 10.1838 5.27608 10.7223C5.81451 11.2607 6.50051 11.6274 7.24734 11.7759C7.99417 11.9245 8.76828 11.8482 9.47177 11.5568C10.1753 11.2654 10.7766 10.772 11.1996 10.1388C11.6226 9.50572 11.8484 8.76136 11.8484 7.9999C11.8484 6.97882 11.4428 5.99956 10.7208 5.27754C9.99879 4.55553 9.01952 4.1499 7.99844 4.1499V4.1499ZM7.99844 10.4999C7.50399 10.4999 7.02064 10.3533 6.60951 10.0786C6.19839 9.80387 5.87796 9.41343 5.68874 8.95661C5.49952 8.4998 5.45001 7.99713 5.54648 7.51218C5.64294 7.02722 5.88104 6.58177 6.23067 6.23214C6.5803 5.8825 7.02576 5.6444 7.51071 5.54794C7.99567 5.45148 8.49833 5.50098 8.95515 5.6902C9.41196 5.87942 9.80241 6.19985 10.0771 6.61098C10.3518 7.0221 10.4984 7.50545 10.4984 7.9999C10.4984 8.66294 10.235 9.29883 9.76621 9.76767C9.29737 10.2365 8.66148 10.4999 7.99844 10.4999Z" fill="#4D4D4D"/>
<path d="M12.0016 4.89668C12.4986 4.89668 12.9016 4.49374 12.9016 3.99668C12.9016 3.49962 12.4986 3.09668 12.0016 3.09668C11.5045 3.09668 11.1016 3.49962 11.1016 3.99668C11.1016 4.49374 11.5045 4.89668 12.0016 4.89668Z" fill="#4D4D4D"/>
</svg>
