<svg width="46" height="40" viewBox="0 0 46 40" fill="none" xmlns="http://www.w3.org/2000/svg">
<g clip-path="url(#clip0_295_16569)">
<path d="M17.7081 16.5816C18.9909 16.0042 20.228 15.473 21.465 14.9188C21.4879 14.9418 21.4879 14.9649 21.5108 14.9649C20.7549 16.189 19.976 17.413 19.22 18.637C19.22 18.6601 19.2429 18.6601 19.2429 18.6832C20.4342 17.9903 21.6025 17.3206 22.8624 16.5816C22.7937 16.7201 22.7708 16.7894 22.7479 16.8356C22.0836 18.0596 21.4421 19.3067 20.7778 20.5308C20.7091 20.6462 20.6403 20.7617 20.5487 20.8541C18.8993 22.5169 17.2499 24.1797 15.6005 25.8656C15.5776 25.8887 15.5547 25.9118 15.463 25.958C15.3256 25.7964 15.1881 25.6347 15.0278 25.473C14.4322 24.8726 13.8365 24.2952 13.2409 23.7178C13.1035 23.5793 12.9431 23.4869 12.7598 23.4176C11.0646 22.8633 9.36941 22.3321 7.65128 21.8241C7.37638 21.7317 7.26184 21.6393 7.26184 21.3391C7.21602 20.4153 7.12439 19.4915 7.05566 18.5446C9.00288 18.6832 10.9043 18.8218 12.8744 18.9603C12.5766 16.928 12.3017 14.9418 12.0039 12.9095C12.6911 12.6324 13.3784 12.3321 14.0198 12.055C14.0427 12.286 14.0427 12.54 14.1114 12.7479C14.1573 12.8633 14.3176 12.9788 14.4322 13.0481C14.7071 13.1636 15.0049 13.025 15.1423 12.7479C15.3256 12.4014 15.211 12.1012 14.7529 11.7548C14.8674 11.7086 14.9591 11.6624 15.0736 11.6162C15.9441 13.279 16.8146 14.9188 17.7081 16.5816ZM19.6553 19.1451C19.0597 18.9141 18.5099 18.7063 17.9371 18.4984C17.8913 18.637 17.8455 18.7756 17.7768 18.9141C18.3495 19.122 18.8993 19.3298 19.472 19.5608C19.5636 19.4222 19.6095 19.3067 19.6553 19.1451Z" fill="white"/>
<path d="M23.5723 16.605C24.8093 17.3209 25.9776 17.9907 27.146 18.6835C27.1689 18.6835 27.1689 18.6604 27.1918 18.6604C26.4129 17.4364 25.6569 16.1893 24.8322 14.896C26.1609 15.4965 27.4209 16.0507 28.6808 16.605C29.5513 14.9422 30.4448 13.3025 31.3153 11.6396C31.4298 11.6858 31.5444 11.732 31.636 11.7782C31.1778 12.1477 31.0633 12.4942 31.2695 12.8406C31.4298 13.0946 31.7506 13.187 32.0255 13.0715C32.3691 12.9099 32.4607 12.5865 32.3004 12.1015C32.392 12.1246 32.4607 12.1477 32.5294 12.1708C33.0563 12.4018 33.5832 12.6327 34.133 12.8406C34.3392 12.9099 34.4079 13.0253 34.385 13.2563C34.2476 14.1339 34.1101 15.0346 33.9956 15.9353C33.8352 16.9514 33.6978 17.9676 33.5374 19.0299C35.4617 18.8914 37.386 18.7528 39.3332 18.6142C39.3103 19.1454 39.2645 19.6535 39.2416 20.1616C39.2187 20.6004 39.15 21.0623 39.15 21.5011C39.15 21.732 39.0583 21.8244 38.8521 21.8706C37.134 22.4018 35.4159 22.933 33.7207 23.4872C33.4916 23.5565 33.2625 23.6951 33.0792 23.8798C32.3691 24.5958 31.6818 25.3348 30.9488 26.0738C30.8342 25.9815 30.7655 25.9122 30.6968 25.866C29.0932 24.2493 27.4667 22.6327 25.8631 20.993C25.7944 20.9237 25.7027 20.8313 25.6569 20.739C24.9697 19.4457 24.2824 18.1523 23.6181 16.8821C23.641 16.7667 23.6181 16.7205 23.5723 16.605ZM28.9328 18.4988C28.3601 18.7066 27.8103 18.9376 27.2376 19.1454C27.3063 19.3071 27.3521 19.4226 27.398 19.5611C27.9936 19.3302 28.5434 19.1223 29.0932 18.9145C29.0474 18.7759 29.0015 18.6373 28.9328 18.4988Z" fill="white"/>
<path d="M21.0532 21.5469C23.4128 23.9025 25.7953 26.2582 28.1777 28.66C26.5054 30.369 24.8789 32.0319 23.2295 33.7178C20.8471 31.2928 18.4875 28.891 16.1279 26.5122C17.7544 24.8725 19.4267 23.1866 21.0532 21.5469Z" fill="white"/>
<path d="M30.2852 26.536C29.7812 27.0672 29.2543 27.6215 28.6816 28.1988C27.0322 26.5129 25.3828 24.827 23.7334 23.1411C24.2832 22.6099 24.833 22.0787 25.3599 21.5938C26.9864 23.2104 28.6358 24.8732 30.2852 26.536Z" fill="white"/>
<path d="M41.4639 14.6648C42.1282 14.5262 44.4191 13.4638 44.9918 13.002C45.3354 13.7179 45.6561 14.4338 45.9768 15.1498C46.0685 15.3576 45.7706 16.0274 45.5874 16.1428C45.2438 16.3738 44.8772 16.42 44.5107 16.189C44.4649 16.2814 44.442 16.3276 44.4191 16.3969C44.3274 16.6278 44.2587 16.8357 43.9838 16.9742C43.5027 17.2745 43.0675 17.2052 42.6322 16.9742C42.5635 16.9281 42.4718 16.905 42.4489 16.8357C42.1282 16.0966 41.8075 15.3807 41.4639 14.6648ZM43.434 15.0574C43.2965 15.1036 43.2049 15.1498 43.1133 15.1959C42.7238 15.3807 42.678 15.5655 42.9987 15.8426C43.0904 15.935 43.2965 15.9812 43.3882 15.935C43.5027 15.8657 43.6173 15.704 43.6173 15.5655C43.6173 15.4038 43.5027 15.2421 43.434 15.0574ZM44.7169 14.4569C44.1671 14.6648 44.1671 14.6648 44.3045 14.965C44.3961 15.1729 44.4878 15.4038 44.7856 15.2652C45.0376 15.1498 45.0147 14.8957 44.7169 14.4569Z" fill="white"/>
<path d="M3.5508 17.7365C2.40538 17.0899 1.23705 16.5818 0 16.1199C0.0687251 15.9351 0.160359 15.7042 0.2749 15.4732C0.458167 15.0344 0.641434 14.6187 0.84761 14.203C0.916335 14.0645 1.05378 13.949 1.19124 13.8797C1.69522 13.5564 2.1992 13.5795 2.70319 13.9028C2.88645 14.0183 3.09263 14.1337 3.29881 14.1799C3.98606 14.3416 4.28386 14.8266 4.42132 15.4501C4.44422 15.5425 4.44422 15.6349 4.42132 15.7042C4.14641 16.397 3.84861 17.0668 3.5508 17.7365ZM1.28287 15.4039C1.83267 15.658 2.33665 15.8889 2.86355 16.1199C3.18426 16.2584 3.32171 16.1892 3.34462 15.8196C3.36753 15.5425 3.23008 15.3808 3.001 15.2654C2.749 15.1499 2.49701 15.0344 2.24502 14.919C1.71813 14.688 1.51195 14.7804 1.28287 15.4039Z" fill="white"/>
<path d="M29.46 4.82669C29.8952 4.20314 30.8345 1.7782 30.9032 1.17773C31.5217 1.43178 32.1173 1.68582 32.7359 1.89367C33.0337 2.00914 33.194 2.1939 33.3315 2.47104C33.5376 2.90984 33.5606 3.27935 33.3544 3.69505C33.1482 4.11076 33.0108 4.57265 32.8275 4.98836C32.7588 5.12692 32.6213 5.26549 32.4839 5.35787C31.9799 5.70429 31.4759 5.6812 30.9261 5.38097C30.445 5.17311 29.941 5.03455 29.46 4.82669ZM31.705 2.47104C31.4988 3.00221 31.2697 3.55649 31.0406 4.11076C30.8803 4.48027 31.0177 4.52646 31.3384 4.57265C31.5904 4.61884 31.7966 4.48027 31.8882 4.22623C32.0028 3.9491 32.0944 3.67196 32.209 3.39482C32.438 2.88674 32.3235 2.6327 31.705 2.47104Z" fill="white"/>
<path d="M26.1843 0.138672C26.4363 0.184861 26.7112 0.254145 26.9861 0.27724C27.2152 0.300335 27.3068 0.415808 27.3756 0.600566C27.5588 1.15484 27.765 1.68602 27.9941 2.33267C28.0857 1.66292 28.1773 1.10865 28.2461 0.508187C28.5668 0.577471 28.9333 0.646755 29.2311 0.692944C28.9791 1.98625 28.7271 3.25646 28.4752 4.54976C28.2461 4.50357 28.0399 4.48047 27.8566 4.41119C27.7879 4.38809 27.7192 4.27262 27.6963 4.20334C27.4443 3.53359 27.1923 2.86385 26.9632 2.1941C26.9403 2.14791 26.9174 2.07863 26.8716 1.98625C26.757 2.74837 26.6425 3.44121 26.5279 4.18024C26.2072 4.11096 25.8407 4.04167 25.4971 3.99549C25.8178 2.72528 26.0698 1.45507 26.1843 0.138672Z" fill="white"/>
<path d="M6.62058 12.1247C6.59767 12.1709 6.55185 12.2632 6.50604 12.3556C6.34568 12.6097 6.11659 12.8406 6.00205 13.1177C5.75006 13.7182 5.17735 13.672 4.69628 13.7644C4.65046 13.7644 4.55883 13.7182 4.51301 13.672C3.9403 13.2794 3.36759 12.8868 2.79488 12.448C2.65743 12.3556 2.63452 12.1247 2.5658 11.9399C2.38253 11.5011 2.49707 11.1316 2.79488 10.8083C2.86361 10.739 2.93233 10.6466 2.97815 10.5542C3.23014 9.99997 3.6654 9.74593 4.28392 9.76902C4.39847 9.76902 4.53592 9.79211 4.62755 9.8614C5.15444 10.2309 5.68133 10.6004 6.20823 10.9699C6.39149 11.0854 6.50604 11.224 6.52894 11.4549C6.52894 11.6628 6.57476 11.8706 6.62058 12.1247ZM5.10863 12.5866C5.20026 12.4942 5.38353 12.3787 5.42934 12.2171C5.47516 12.0785 5.42934 11.8475 5.33771 11.7552C4.97118 11.4549 4.58173 11.2009 4.2152 10.9468C4.03193 10.8314 3.87157 10.9007 3.73412 11.0392C3.59667 11.2009 3.43632 11.4318 3.61958 11.5704C4.05484 11.9399 4.51301 12.2171 4.97118 12.5404C4.97118 12.5635 4.99408 12.5635 5.10863 12.5866Z" fill="white"/>
<path d="M18.3265 4.50323C18.1891 4.41085 18.0287 4.29538 17.8684 4.203C17.5476 4.04134 17.4102 3.78729 17.3415 3.44087C17.2498 2.86351 17.1124 2.28614 17.0207 1.68568C16.9978 1.5702 17.0436 1.43164 17.0895 1.31616C17.3185 0.76189 17.7538 0.461659 18.3494 0.461659C18.3952 0.461659 18.4411 0.461659 18.464 0.438564C19.0596 0.184522 19.5407 0.392375 19.9759 0.784984C20.0446 0.854268 20.1134 0.969742 20.1363 1.06212C20.2737 1.73187 20.4112 2.42471 20.5257 3.11755C20.5486 3.20993 20.5028 3.34849 20.457 3.44087C20.2279 3.97205 19.8385 4.27228 19.2199 4.29538C18.945 4.34157 18.6472 4.43395 18.3265 4.50323ZM19.3345 2.93279C19.2429 2.49399 19.1741 2.05519 19.0596 1.5933C19.0138 1.36235 18.8076 1.29307 18.5556 1.33926C18.2807 1.38545 18.1433 1.54711 18.1891 1.82425C18.2578 2.26304 18.3494 2.67875 18.4411 3.11755C18.5098 3.37159 18.716 3.48706 18.968 3.44087C19.197 3.37159 19.3574 3.23302 19.3345 2.93279Z" fill="white"/>
<path d="M14.524 37.8296C14.524 38.4993 14.524 39.2153 14.524 39.9543C14.2032 39.9543 13.8138 39.9543 13.4702 39.9543C13.5618 38.661 13.6076 37.3677 13.4473 36.0513C13.768 36.0513 14.1116 36.0282 14.4323 36.0513C14.524 36.0513 14.6156 36.1668 14.6614 36.236C14.9592 36.721 15.257 37.2291 15.5319 37.7372C15.5319 37.1829 15.5319 36.6286 15.5319 36.0513C15.8526 36.0513 16.2192 36.0513 16.6086 36.0513C16.4024 37.3446 16.5857 38.6379 16.4941 39.9543C16.2879 39.9543 16.0817 39.9774 15.8756 39.9543C15.7839 39.9312 15.6923 39.8388 15.6465 39.7464C15.2799 39.0998 14.8905 38.4531 14.524 37.8296Z" fill="white"/>
<path d="M42.4036 9.12207C42.6098 9.4223 42.8618 9.76872 43.0679 10.0459C42.3578 10.5539 41.6705 11.0389 40.9833 11.547C40.7771 11.7087 40.7313 11.9165 40.8917 12.1475C41.0291 12.3553 41.2582 12.4477 41.4644 12.286C42.1516 11.778 42.9076 11.3623 43.5032 10.6694C43.7323 10.9927 43.9843 11.3161 44.2134 11.6394C43.297 12.1013 42.5181 12.771 41.7164 13.3715C41.6476 13.4177 41.556 13.4408 41.4644 13.4408C41.2124 13.4177 40.9604 13.3715 40.7084 13.3253C40.6167 13.3022 40.548 13.2329 40.4793 13.1405C40.296 12.9096 40.1586 12.6325 39.9524 12.4246C39.4942 11.9858 39.7233 11.5008 39.792 11.0389C39.792 10.9927 39.8608 10.9466 39.9066 10.9004C40.5709 10.4154 41.2582 9.95348 41.9225 9.46849C42.0829 9.37611 42.2203 9.26064 42.4036 9.12207Z" fill="white"/>
<path d="M29.643 38.0142C29.643 37.7602 29.6659 37.5293 29.643 37.2752C29.5972 36.9288 29.7347 36.6748 29.9866 36.4207C30.2616 36.1436 30.5135 35.9819 30.903 36.0281C31.0404 36.0512 31.1779 36.0512 31.2924 36.0281C31.911 35.8895 32.2317 36.3514 32.5753 36.7209C32.6211 36.7671 32.6211 36.8826 32.6211 36.9519C32.6211 37.6678 32.6211 38.3607 32.6211 39.0766C32.6211 39.1921 32.5524 39.3075 32.4837 39.3999C32.163 39.8849 31.7048 40.0928 31.1321 39.9773C31.1092 39.9773 31.0863 39.9773 31.0633 39.9773C30.4448 40.139 30.0554 39.7694 29.7117 39.3306C29.6659 39.2614 29.6201 39.1459 29.6201 39.0535C29.643 38.7071 29.643 38.3607 29.643 38.0142ZM31.5902 37.9911C31.5902 37.7602 31.5902 37.5293 31.5902 37.3214C31.5673 37.0443 31.407 36.8826 31.155 36.8826C30.8801 36.8826 30.6968 37.0443 30.6968 37.3214C30.6968 37.7602 30.6739 38.2221 30.6968 38.684C30.6968 38.9611 30.8801 39.1228 31.155 39.1228C31.407 39.1228 31.5902 38.9611 31.6131 38.684C31.6131 38.453 31.5902 38.2221 31.5902 37.9911Z" fill="white"/>
<path d="M23.3436 0C23.756 0 24.1454 0 24.5578 0C24.3745 1.01617 24.5119 2.03233 24.5349 3.0485C24.5349 3.14088 24.489 3.23326 24.4432 3.30254C24.0996 3.78753 23.6643 4.04157 23.0458 3.9261C23 3.9261 22.9542 3.9261 22.9313 3.9261C22.3356 4.06466 21.9233 3.76443 21.5797 3.32563C21.5339 3.25635 21.488 3.18707 21.488 3.11778C21.488 2.24018 21.488 1.38568 21.4651 0.508083C21.4651 0.369515 21.3964 0.207852 21.3506 0.0230947C21.8088 0.0230947 22.2211 0.0230947 22.6105 0.0230947C22.6105 0.831409 22.6105 1.66282 22.6105 2.49423C22.6105 2.84065 22.7709 3.00231 23.0687 2.97921C23.3436 2.97921 23.504 2.79446 23.504 2.47113C23.504 1.87067 23.504 1.27021 23.4811 0.669746C23.4582 0.461894 23.3894 0.254042 23.3436 0Z" fill="white"/>
<path d="M7.65168 6.88176C7.35387 7.1127 7.03315 7.32055 6.73534 7.5746C6.41463 7.87483 6.41463 8.19815 6.73534 8.52148C6.94152 8.75243 7.1706 8.96028 7.37678 9.16813C7.62877 9.42217 8.01821 9.37598 8.15566 9.02956C8.20148 8.93718 8.15566 8.75242 8.08694 8.68314C7.85785 8.45219 7.58295 8.26744 7.35387 8.10577C7.62877 7.82864 7.94949 7.48222 8.29311 7.1127C8.38475 7.59769 8.77419 7.82864 9.072 8.15196C9.16363 8.24434 9.20945 8.38291 9.23236 8.49838C9.32399 9.05266 9.16363 9.51455 8.68256 9.83787C8.65965 9.86097 8.63674 9.88406 8.61383 9.90716C8.2702 10.4614 7.7204 10.4845 7.1706 10.4152C7.07897 10.4152 7.01024 10.3691 6.94152 10.2998C6.46044 9.81478 5.97937 9.32979 5.5212 8.82171C5.45248 8.75243 5.40666 8.61386 5.38375 8.49838C5.36084 7.62079 5.36084 7.62079 5.97937 6.99723C6.16264 6.81247 6.32299 6.62771 6.52917 6.46605C6.59789 6.41986 6.71244 6.37367 6.78116 6.39677C7.07897 6.55843 7.37678 6.74319 7.65168 6.88176Z" fill="white"/>
<path d="M10.0113 3.81055C10.3091 4.0184 10.5611 4.22625 10.836 4.4341C10.4236 4.68815 10.0113 4.91909 9.57604 5.17313C9.69058 5.3348 9.78221 5.47336 9.87385 5.63503C10.08 5.42718 10.2633 5.26551 10.4924 5.05766C10.6986 5.35789 10.9047 5.65812 11.1109 5.95835C10.9047 6.05073 10.7215 6.14311 10.5382 6.23549C10.3549 6.32787 10.4007 6.46644 10.5153 6.58191C10.6298 6.69738 10.6527 6.97452 10.9047 6.78976C11.2713 6.51263 11.6149 6.23549 11.9585 5.93526C12.0501 6.2124 12.1418 6.53572 12.2334 6.88214C12.2563 6.92833 12.2105 7.0438 12.1647 7.0669C11.5462 7.5057 10.9505 7.9214 10.332 8.3602C9.98839 7.59808 8.65971 5.65812 8.13281 5.15004V5.12694C8.75134 4.68815 9.36986 4.24935 10.0113 3.81055Z" fill="white"/>
<path d="M21.167 36.0508C21.8542 36.0508 22.5644 36.0508 23.2746 36.0508C23.3433 36.0508 23.4349 36.097 23.4578 36.1663C23.5724 36.4665 23.664 36.7667 23.7556 37.0438C23.3662 37.0208 23.0226 36.9746 22.656 36.9746C22.2437 36.9515 22.2437 36.9746 22.3353 37.4827C22.5873 37.4596 22.8622 37.4134 23.1142 37.3903C23.1142 37.7367 23.1142 38.1062 23.1142 38.4757C22.9309 38.4526 22.7477 38.4064 22.5644 38.3833C22.3582 38.3602 22.2666 38.4295 22.2895 38.6605C22.3124 38.8452 22.2437 39.0762 22.5415 39.0531C22.9768 39.03 23.3891 38.9838 23.8473 38.9607C23.7556 39.2609 23.6411 39.6074 23.5266 39.9769C22.7248 39.9769 21.923 39.9769 21.167 39.9769C21.2586 38.6605 21.2586 37.3672 21.167 36.0508Z" fill="white"/>
<path d="M7.39941 38.9142C7.78886 38.9604 8.1783 39.0066 8.56774 39.0297C8.79682 39.0527 8.98009 38.9604 9.003 38.7063C9.02591 38.4523 8.84264 38.4061 8.63647 38.3368C8.38447 38.2675 8.13248 38.2213 7.9034 38.0828C7.37651 37.8056 7.49105 37.2745 7.51396 36.8126C7.53686 36.5585 8.24702 36.0273 8.49902 36.0273C8.86555 36.0273 9.20917 36.0273 9.57571 36.0273C9.73607 36.0273 9.80479 36.0735 9.85061 36.2352C9.91933 36.5123 10.0339 36.7664 10.1026 37.0204C9.73607 36.9973 9.36953 36.9511 9.003 36.9511C8.86555 36.9511 8.7281 37.1128 8.61356 37.1821C8.7281 37.2745 8.81973 37.3899 8.95718 37.4592C9.20917 37.5747 9.48408 37.5978 9.71316 37.7363C10.3088 38.0828 10.1255 38.6601 10.1255 39.1913C10.1255 39.4454 9.39244 39.9534 9.14045 39.9534C8.75101 39.9534 8.36157 39.9534 7.99503 39.9534C7.83467 39.9534 7.76595 39.9072 7.72013 39.7456C7.60559 39.4685 7.49105 39.1682 7.39941 38.9142Z" fill="white"/>
<path d="M13.9738 4.87328C14.3632 4.75781 14.7526 4.64233 15.1192 4.52686C15.3254 4.45757 15.4399 4.31901 15.3712 4.08806C15.3024 3.85711 15.1192 3.88021 14.9359 3.9033C14.6839 3.9264 14.409 3.97259 14.157 3.94949C13.5614 3.88021 13.4469 3.37212 13.3323 2.91023C13.2865 2.74857 13.4469 2.54071 13.5156 2.33286C13.6072 2.00954 13.8134 1.80168 14.157 1.70931C14.409 1.64002 14.661 1.54764 14.8901 1.43217C15.0963 1.33979 15.2337 1.33979 15.3712 1.54764C15.5086 1.7555 15.6919 1.94025 15.8293 2.12501C15.4857 2.24048 15.1421 2.33286 14.7985 2.42524C14.5923 2.49453 14.4548 2.61 14.5006 2.81785C14.5465 3.0488 14.7526 2.95642 14.913 2.93332C15.165 2.91023 15.417 2.86404 15.669 2.88714C16.3562 2.97951 16.4479 3.60307 16.6082 4.13425C16.6999 4.41139 16.1959 5.12732 15.921 5.2197C15.5773 5.35827 15.2337 5.49684 14.8672 5.61231C14.7985 5.6354 14.661 5.6354 14.6152 5.58921C14.3632 5.38136 14.157 5.10423 13.9738 4.87328Z" fill="white"/>
<path d="M33.4925 37.1592C33.4925 37.09 33.4925 37.0669 33.4925 37.0438C33.607 36.7204 33.6299 36.2816 33.859 36.0969C34.0652 35.9352 34.4775 36.0969 34.7982 36.0276C35.4168 35.9121 35.7146 36.3509 36.0582 36.7204C36.2186 36.8821 36.104 37.7366 35.9437 37.8983C35.6 38.2447 35.2564 38.5911 34.9128 38.9375C34.9128 38.9606 34.9357 39.0068 34.9357 39.0299C35.3939 38.9837 35.8749 38.9375 36.356 38.8913C36.2644 39.1916 36.1498 39.538 36.0353 39.8613C36.0124 39.9306 35.8979 39.9768 35.8291 39.9768C35.1877 39.9768 34.5233 39.9999 33.8819 39.9768C33.7903 39.9768 33.6528 39.8382 33.5841 39.7459C33.3321 39.3071 33.355 39.3071 33.6986 38.9375C34.111 38.5218 34.5004 38.1292 34.8899 37.7135C35.0502 37.5519 35.1419 37.3671 35.0502 37.1362C34.9586 36.9052 34.7524 36.8821 34.5463 36.9052C34.3859 36.9283 34.2026 36.9514 34.0423 36.9976C33.859 37.0207 33.6986 37.09 33.4925 37.1592Z" fill="white"/>
<path d="M26.0006 37.1593C26.138 36.7436 26.2526 36.3972 26.3671 36.0508C26.8482 36.0508 27.3293 36.0508 27.7874 36.0508C27.8791 36.0508 28.0165 36.1201 28.0623 36.1893C28.2685 36.4434 28.6121 36.5589 28.635 36.9746C28.6808 37.5057 28.5663 37.9445 28.1081 38.291C27.8561 38.4757 27.65 38.7298 27.4209 38.9376C27.4438 38.9838 27.4438 39.0069 27.4667 39.0531C27.9249 39.0069 28.383 38.9607 28.8641 38.9145C28.7725 39.2147 28.6579 39.5612 28.5205 39.8845C28.4976 39.9307 28.383 39.9769 28.3143 40C27.6729 40 27.0314 40 26.39 40C26.1609 40 26.138 39.8383 26.0464 39.7228C25.8402 39.4226 25.8631 39.2147 26.1609 38.9838C26.5733 38.6374 26.9398 38.2217 27.3063 37.8291C27.3751 37.7598 27.4667 37.6674 27.5125 37.575C27.6958 37.2286 27.5354 36.9284 27.146 36.9284C26.9398 36.9284 26.7107 36.9746 26.5046 37.0208C26.3671 37.0208 26.2067 37.09 26.0006 37.1593Z" fill="white"/>
<path d="M37.3636 7.89801C37.0199 8.15206 36.6992 8.383 36.3785 8.61395C35.9891 8.33681 35.5996 8.05968 35.256 7.78254C35.1644 7.69016 35.1415 7.5285 35.0727 7.38993C34.8666 6.81256 35.0269 6.35067 35.4164 5.91187C35.6913 5.61164 35.8974 5.28831 36.1036 4.94189C36.2411 4.75713 36.4014 4.66476 36.6076 4.61857C37.1574 4.48 37.6156 4.54928 38.005 4.96499C38.1654 5.12665 38.3944 5.26522 38.6006 5.40379C38.4861 5.7733 38.3715 6.11972 38.2341 6.53543C38.0966 6.37376 38.005 6.2352 37.8905 6.09663C37.5926 5.68092 37.0199 5.49617 36.6534 6.11972C36.5847 6.25829 36.4701 6.37376 36.3785 6.51233C35.9891 7.04351 36.1494 7.5054 36.7679 7.73635C36.9512 7.78254 37.1345 7.82873 37.3636 7.89801Z" fill="white"/>
<path d="M20.3194 37.1827C20.0674 37.1134 19.8612 37.0211 19.655 36.9749C19.2198 36.8825 18.7387 37.0903 18.7845 37.6908C18.8074 37.8756 18.8074 38.0603 18.7845 38.2451C18.7158 39.0072 19.2656 39.1227 19.8154 39.0072C19.9757 38.961 20.1361 38.8917 20.3652 38.8224C20.2506 39.192 20.159 39.5153 20.0216 39.8386C19.9986 39.8848 19.8841 39.9541 19.8154 39.9541C19.403 39.9541 19.0136 39.9772 18.6012 39.9541C18.5096 39.9541 18.3951 39.8848 18.3034 39.8386C17.7994 39.4691 17.5245 39.0072 17.6391 38.3374C17.6849 38.1065 17.6849 37.8525 17.6391 37.5984C17.5704 37.0211 17.7307 36.6053 18.1889 36.2358C18.3722 36.0973 18.5096 36.0049 18.7387 36.0049C19.0594 36.028 19.3801 36.028 19.6779 36.0049C19.8383 36.0049 19.9299 36.0511 19.9757 36.2127C20.1132 36.5592 20.2048 36.8594 20.3194 37.1827Z" fill="white"/>
<path d="M37.2031 9.23787C38.1424 8.42955 39.0358 7.50577 39.8605 6.5127C40.1354 6.78983 40.4561 7.11316 40.731 7.43648C39.9292 7.92147 39.3794 8.75288 38.6005 9.44572C38.99 9.76904 39.3565 10.0462 39.723 10.3464C39.4481 10.485 39.1503 10.6466 38.8296 10.7852C38.7838 10.8083 38.6464 10.7621 38.6005 10.7159C38.1195 10.2078 37.6384 9.69976 37.2031 9.23787Z" fill="white"/>
<path d="M12.3245 39.9538C11.9351 39.9538 11.4998 39.9538 11.1104 39.9538C11.2249 38.6605 11.202 37.3672 11.1104 36.0508C11.4998 36.0508 11.9351 36.0508 12.3474 36.0508C12.21 37.3441 12.2329 38.6374 12.3245 39.9538Z" fill="white"/>
<path d="M38.4635 39.9538C38.074 39.9538 37.6388 39.9538 37.2035 39.9538C37.4784 39.0069 37.2723 38.0369 37.3639 37.0669C37.1806 37.0669 37.0661 37.0438 36.8828 37.0438C37.0432 36.7205 37.1806 36.4203 37.341 36.1432C37.3639 36.097 37.4555 36.0508 37.5013 36.0508C37.7762 36.0508 38.074 36.0508 38.3719 36.0508C38.3719 36.4896 38.3719 36.9053 38.3719 37.2979C38.3719 37.7598 38.3489 38.2448 38.3719 38.7067C38.3948 39.1224 38.4406 39.5381 38.4635 39.9538Z" fill="white"/>
</g>
<defs>
<clipPath id="clip0_295_16569">
<rect width="46" height="40" fill="white"/>
</clipPath>
</defs>
</svg>
